<?xml version="1.0" encoding="UTF-8" standalone="no"?>
<!-- Created with Inkscape (http://www.inkscape.org/) -->

<svg
   xmlns:osb="http://www.openswatchbook.org/uri/2009/osb"
   xmlns:dc="http://purl.org/dc/elements/1.1/"
   xmlns:cc="http://creativecommons.org/ns#"
   xmlns:rdf="http://www.w3.org/1999/02/22-rdf-syntax-ns#"
   xmlns:svg="http://www.w3.org/2000/svg"
   xmlns="http://www.w3.org/2000/svg"
   xmlns:sodipodi="http://sodipodi.sourceforge.net/DTD/sodipodi-0.dtd"
   xmlns:inkscape="http://www.inkscape.org/namespaces/inkscape"
   width="540"
   height="960"
   viewBox="0 0 142.875 254"
   version="1.1"
   id="svg4629"
   sodipodi:docname="GeoLocationMap.svg"
   inkscape:version="0.92.3 (2405546, 2018-03-11)">
  <defs
     id="defs4623">
    <linearGradient
       id="linearGradient6811"
       osb:paint="solid">
      <stop
         style="stop-color:#000000;stop-opacity:1;"
         offset="0"
         id="stop6809" />
    </linearGradient>
  </defs>
  <sodipodi:namedview
     id="base"
     pagecolor="#ffffff"
     bordercolor="#666666"
     borderopacity="1.0"
     inkscape:pageopacity="0.0"
     inkscape:pageshadow="2"
     inkscape:zoom="0.53417909"
     inkscape:cx="1099.4169"
     inkscape:cy="567.68514"
     inkscape:document-units="mm"
     inkscape:current-layer="layer1"
     showgrid="false"
     inkscape:window-width="1920"
     inkscape:window-height="1000"
     inkscape:window-x="-11"
     inkscape:window-y="-11"
     inkscape:window-maximized="1"
     units="px">
    <inkscape:grid
       type="xygrid"
       id="grid4718" />
  </sodipodi:namedview>
  <metadata
     id="metadata4626">
    <rdf:RDF>
      <cc:Work
         rdf:about="">
        <dc:format>image/svg+xml</dc:format>
        <dc:type
           rdf:resource="http://purl.org/dc/dcmitype/StillImage" />
        <dc:title></dc:title>
      </cc:Work>
    </rdf:RDF>
  </metadata>
  <g
     inkscape:label="Layer 1"
     inkscape:groupmode="layer"
     id="layer1"
     transform="translate(0,-42.99997)">
    <rect
       style="fill:#000000;fill-opacity:0;stroke-width:0.1;stroke-miterlimit:4;stroke-dasharray:none"
       id="rect4796"
       width="51.834904"
       height="25.567217"
       x="3.1521225"
       y="61.991714" />
    <text
       xml:space="preserve"
       style="font-style:normal;font-weight:normal;font-size:7.05555556px;line-height:1.25;font-family:sans-serif;letter-spacing:0px;word-spacing:0px;fill:#000000;fill-opacity:1;stroke:none;stroke-width:0.26458332;"
       x="21.364388"
       y="87.909164"
       id="text6905"><tspan
         sodipodi:role="line"
         id="tspan6903"
         x="21.364388"
         y="97.564659"
         style="stroke-width:0.26458332;font-size:7.05555556px;" /></text>
    <rect
       style="fill:#000000;fill-opacity:0;stroke:#000000;stroke-width:1.58749998;stroke-miterlimit:4;stroke-dasharray:none;stroke-opacity:1"
       id="rect881"
       width="143.24648"
       height="254.62148"
       x="0.35023585"
       y="43.078979" />
    <text
       xml:space="preserve"
       style="font-style:normal;font-weight:normal;font-size:7.05555534px;line-height:1.25;font-family:sans-serif;letter-spacing:0px;word-spacing:0px;fill:#000000;fill-opacity:1;stroke:none;stroke-width:0.26458332"
       x="39.596478"
       y="58.591896"
       id="text6922-8"><tspan
         sodipodi:role="line"
         id="tspan6920-0"
         x="39.596478"
         y="58.591896"
         style="stroke-width:0.26458332">Add Geo Location</tspan></text>
    <rect
       style="fill:#000000;fill-opacity:0;stroke:#000000;stroke-width:4.11790228;stroke-miterlimit:4;stroke-dasharray:none;stroke-opacity:1"
       id="rect5341-0"
       width="131.88803"
       height="186.87852"
       x="4.7939458"
       y="89.200752" />
    <rect
       style="fill:#000000;fill-opacity:0;stroke:#000000;stroke-width:0.79855317;stroke-miterlimit:4;stroke-dasharray:none;stroke-opacity:1"
       id="rect5341-0-33"
       width="75.336632"
       height="12.303089"
       x="33.12133"
       y="66.462227" />
    <text
       xml:space="preserve"
       style="font-style:normal;font-weight:normal;font-size:3.52777778px;line-height:1.25;font-family:sans-serif;letter-spacing:0px;word-spacing:0px;fill:#000000;fill-opacity:1;stroke:none;stroke-width:0.26458332;"
       x="53.235847"
       y="73.199265"
       id="text547"><tspan
         sodipodi:role="line"
         id="tspan545"
         x="53.235847"
         y="82.854759"
         style="stroke-width:0.26458332;font-size:3.52777778px;" /></text>
    <text
       xml:space="preserve"
       style="font-style:normal;font-weight:normal;font-size:10.58333302px;line-height:1.25;font-family:sans-serif;letter-spacing:0px;word-spacing:0px;fill:#000000;fill-opacity:1;stroke:none;stroke-width:0.26458332"
       x="41.540283"
       y="73.857239"
       id="text551"><tspan
         sodipodi:role="line"
         id="tspan549"
         x="41.540283"
         y="73.857239"
         style="font-size:6.3499999px;stroke-width:0.26458332">Add selected point</tspan></text>
    <text
       xml:space="preserve"
       style="font-style:normal;font-weight:normal;font-size:10.58333302px;line-height:1.25;font-family:sans-serif;letter-spacing:0px;word-spacing:0px;fill:#000000;fill-opacity:1;stroke:none;stroke-width:0.26458332"
       x="18.912737"
       y="119.78062"
       id="text709"><tspan
         sodipodi:role="line"
         id="tspan707"
         x="18.912737"
         y="119.78062"
         style="stroke-width:0.26458332">This is a map</tspan></text>
    <path
       style="fill:none;stroke:#000000;stroke-width:0.26458332px;stroke-linecap:butt;stroke-linejoin:miter;stroke-opacity:1"
       d="m 43.153734,176.33048 c 0.150161,0.10534 -0.03003,0.25136 0,0.37148 0.01582,0.0633 0.04608,0.12243 0.06191,0.18574 0.005,0.02 -0.0065,0.0423 0,0.0619 0.01458,0.0438 0.05433,0.0783 0.06191,0.12383 0.01357,0.0814 -0.01167,0.16593 0,0.24765 0.0092,0.0646 0.05118,0.12137 0.06191,0.18574 0.01019,0.0611 -0.01214,0.12503 0,0.18574 0.009,0.0453 0.05286,0.0786 0.06191,0.12383 0.01214,0.0607 -0.0088,0.12445 0,0.18574 0.01204,0.0842 0.04988,0.16341 0.06191,0.24765 0.01461,0.10216 -0.02024,0.20839 0,0.30957 0.01281,0.064 0.04911,0.12175 0.06191,0.18574 0.0081,0.0405 0,0.0825 0,0.12383 0,0.10319 0,0.20638 0,0.30957 0,0.28893 0,0.57785 0,0.86678 0,0.78228 0,1.93622 0,2.35272"
       id="path717"
       inkscape:connector-curvature="0" />
    <path
       style="fill:none;stroke:#000000;stroke-width:0.26458332px;stroke-linecap:butt;stroke-linejoin:miter;stroke-opacity:1"
       d="m 42.782234,174.04011 c 0.04852,0.21254 -0.244306,0.17905 -0.309568,0.30957 -0.0092,0.0185 0.0092,0.0435 0,0.0619 -0.01304,0.0261 -0.04886,0.0358 -0.06191,0.0619 -0.0092,0.0185 0.0092,0.0434 0,0.0619 -0.01304,0.0261 -0.04886,0.0358 -0.06192,0.0619 -0.01847,0.0369 0.02919,0.0946 0,0.12382 -0.01458,0.0146 -0.04345,-0.009 -0.06191,0 -0.136896,0.0684 -0.01921,0.0384 -0.06191,0.12383 -0.01304,0.0261 -0.04886,0.0358 -0.06191,0.0619 -0.01228,0.0246 0.01265,0.17309 0,0.18574 -0.02919,0.0292 -0.09464,-0.0292 -0.123827,0 -0.01265,0.0127 0.01228,0.1612 0,0.18574 -0.01304,0.0261 -0.04886,0.0358 -0.06191,0.0619 -0.0092,0.0185 0,0.0413 0,0.0619 0,0.0206 0,0.0413 0,0.0619 0,0.10319 0,0.20638 0,0.30956 0,0.10319 0,0.20638 0,0.30957 0,0.0206 -0.01461,0.0473 0,0.0619 0.01458,0.0146 0.04732,-0.0146 0.06191,0 0.0146,0.0146 -0.01458,0.0473 0,0.0619 0.0146,0.0146 0.04732,-0.0146 0.06192,0 0.02919,0.0292 -0.02919,0.0946 0,0.12383 0.02919,0.0292 0.09464,-0.0292 0.123827,0 0.01458,0.0146 -0.0146,0.0473 0,0.0619 0.03096,0.0309 0.154784,-0.031 0.185741,0 0.01458,0.0146 -0.0146,0.0473 0,0.0619 0.01918,0.0192 0.290396,-0.0192 0.309567,0 0.01458,0.0146 -0.01461,0.0473 0,0.0619 0.02919,0.0292 0.09464,-0.0292 0.123825,0 0.01461,0.0146 -0.01458,0.0473 0,0.0619 0.0411,0.0411 0.08273,-0.0411 0.123828,0 0.0146,0.0146 -0.01458,0.0473 0,0.0619 0.0146,0.0146 0.04732,-0.0146 0.06191,0 0.01461,0.0146 -0.01461,0.0473 0,0.0619 0.128101,0.1281 -0.005,-0.19576 0.123825,0.0619 0.01847,0.0369 -0.02919,0.0946 0,0.12383 0.01461,0.0146 0.04732,-0.0146 0.06192,0 0.02919,0.0292 -0.02919,0.0946 0,0.12382 0.01458,0.0146 0.04127,0 0.06191,0 0.02064,0 0.04127,0 0.06191,0 0.123825,0 0.247653,0 0.37148,0 0.02788,0 0.166899,0.009 0.18574,0 0.02611,-0.013 0.03581,-0.0489 0.06191,-0.0619 0.04277,-0.0214 0.287835,0.0217 0.309568,0 0.0146,-0.0146 -0.01458,-0.0473 0,-0.0619 0.0146,-0.0146 0.04732,0.0146 0.06191,0 0.0146,-0.0146 -0.01461,-0.0473 0,-0.0619 0.0146,-0.0146 0.04732,0.0146 0.06191,0 0.0146,-0.0146 -0.01458,-0.0473 0,-0.0619 0.0146,-0.0146 0.04346,0.009 0.06191,0 0.02611,-0.013 0.04127,-0.0413 0.06191,-0.0619 0.02064,-0.0206 0.04886,-0.0358 0.06191,-0.0619 0.01228,-0.0246 -0.01265,-0.17308 0,-0.18574 0.01461,-0.0146 0.04732,0.0146 0.06192,0 0.03096,-0.031 -0.03096,-0.15478 0,-0.18574 0.01458,-0.0146 0.04732,0.0146 0.06191,0 0.01918,-0.0192 -0.01918,-0.2904 0,-0.30956 0.01461,-0.0146 0.04732,0.0146 0.06191,0 0.01458,-0.0146 0,-0.0413 0,-0.0619 0,-0.0206 0,-0.0413 0,-0.0619 0,-0.26829 0,-0.53659 0,-0.80488 0,-0.0227 0.0024,-0.24516 0,-0.24765 -0.0146,-0.0146 -0.04732,0.0146 -0.06191,0 -0.01458,-0.0146 0.01461,-0.0473 0,-0.0619 -0.01458,-0.0146 -0.04732,0.0146 -0.06191,0 -0.02919,-0.0292 0.01847,-0.0869 0,-0.12382 -0.01304,-0.0261 -0.04127,-0.0413 -0.06192,-0.0619 -0.02064,-0.0206 -0.03581,-0.0489 -0.06191,-0.0619 -0.01847,-0.009 -0.04732,0.0146 -0.06191,0 -0.01461,-0.0146 0.01458,-0.0473 0,-0.0619 -0.01461,-0.0146 -0.04346,0.009 -0.06191,0 -0.136892,-0.0684 -0.01921,-0.0384 -0.06191,-0.12383 -0.128836,-0.25767 0.0043,0.0662 -0.123828,-0.0619 -0.01458,-0.0146 0.01461,-0.0473 0,-0.0619 -0.01458,-0.0146 -0.04127,0 -0.06191,0 -0.02064,0 -0.04128,0 -0.06192,0 -0.165102,0 -0.330205,0 -0.495307,0 -0.02064,0 -0.04732,-0.0146 -0.06191,0 -0.01461,0.0146 0,0.0413 0,0.0619 -0.02064,0 -0.04732,-0.0146 -0.06191,0 -0.01461,0.0146 0.0146,0.0473 0,0.0619 -0.01461,0.0146 -0.04127,0 -0.06191,0 -0.02064,0 -0.04127,0 -0.06191,0 -0.165103,0 -0.330208,0 -0.495311,0 -0.02064,0 -0.04127,0 -0.06191,0 -0.02064,0 -0.04732,-0.0146 -0.06191,0 -0.01461,0.0146 0.01458,0.0473 0,0.0619 -0.02919,0.0292 -0.09464,-0.0292 -0.123827,0 -0.03096,0.031 0.03096,0.15479 0,0.18574 -0.01461,0.0146 -0.04732,-0.0146 -0.06192,0 -0.03096,0.031 0.03096,0.15479 0,0.18574 -0.01458,0.0146 -0.04732,-0.0146 -0.06191,0 -0.01458,0.0146 0,0.0413 0,0.0619 0,0.0206 0,0.0413 0,0.0619 0,0.1651 0,0.33021 0,0.49531 0,0.0206 0,0.0413 0,0.0619 0,0.0206 0.0146,0.0473 0,0.0619 -0.01458,0.0146 -0.04732,-0.0146 -0.06191,0 -0.0146,0.0146 0.01458,0.0473 0,0.0619 -0.0146,0.0146 -0.04732,-0.0146 -0.06192,0 -0.01458,0.0146 0,0.0413 0,0.0619 0,0.12383 0,0.24766 0,0.37149 0,0.0206 -0.0092,0.0435 0,0.0619 0.01304,0.0261 0.04886,0.0358 0.06192,0.0619 0.0092,0.0185 -0.0146,0.0473 0,0.0619 0.01458,0.0146 0.04345,-0.009 0.06191,0 0.02611,0.013 0.03581,0.0489 0.06191,0.0619 0.01847,0.009 0.04346,-0.009 0.06192,0 0.02611,0.013 0.03581,0.0489 0.06191,0.0619 0.01847,0.009 0.04345,-0.009 0.06191,0 0.02611,0.013 0.03581,0.0489 0.06191,0.0619 0.01847,0.009 0.04732,-0.0146 0.06191,0 0.01461,0.0146 -0.01458,0.0473 0,0.0619 0.04097,0.041 0.08286,-0.041 0.123828,0 0.0146,0.0146 -0.01458,0.0473 0,0.0619 0.03096,0.031 0.154784,-0.031 0.18574,0 0.01461,0.0146 -0.01458,0.0473 0,0.0619 0.01461,0.0146 0.04732,-0.0146 0.06192,0 0.01458,0.0146 -0.01461,0.0473 0,0.0619 0.02919,0.0292 0.08691,-0.0185 0.123828,0 0.02611,0.013 0.03581,0.0489 0.06191,0.0619 0.01847,0.009 0.04732,-0.0146 0.06191,0 0.0146,0.0146 -0.01461,0.0473 0,0.0619 0.0146,0.0146 0.04732,-0.0146 0.06191,0 0.01458,0.0146 -0.0092,0.0435 0,0.0619 0.01304,0.0261 0.04127,0.0413 0.06191,0.0619 0.02064,0.0206 0.03581,0.0489 0.06191,0.0619 0.03692,0.0185 0.09464,-0.0292 0.123825,0 0.0146,0.0146 -0.01458,0.0473 0,0.0619 0.0146,0.0146 0.04346,-0.009 0.06191,0 0.02611,0.013 0.03581,0.0489 0.06191,0.0619 0.01847,0.009 0.04127,0 0.06191,0 0.02064,0 0.04128,0 0.06192,0 0.03237,0 0.231375,0.008 0.247653,0 0.02611,-0.013 0.03581,-0.0489 0.06191,-0.0619 0.01847,-0.009 0.04346,0.009 0.06191,0 0.01643,-0.008 0.177522,-0.1693 0.18574,-0.18574 0.01119,-0.0224 0,-0.2665 0,-0.30957 0,-0.10319 0,-0.20638 0,-0.30956 0,-0.0206 0.01461,-0.0473 0,-0.0619 -0.01458,-0.0146 -0.04732,0.0146 -0.06191,0 -0.02172,-0.0217 0.02138,-0.2668 0,-0.30957 -0.01304,-0.0261 -0.04886,-0.0358 -0.06191,-0.0619 -0.0092,-0.0185 0,-0.0413 0,-0.0619 -0.02064,-0.0413 -0.03632,-0.0854 -0.06191,-0.12383 -0.01619,-0.0243 -0.04886,-0.0358 -0.06191,-0.0619 -0.01826,-0.0365 0.01421,-0.14316 0,-0.18575 -0.01461,-0.0438 -0.05072,-0.079 -0.06191,-0.12382 -0.0075,-0.0302 0.01638,-0.21492 0,-0.24766 -0.01304,-0.0261 -0.04886,-0.0358 -0.06191,-0.0619 -0.01847,-0.0369 0.02919,-0.0946 0,-0.12383 -0.01458,-0.0146 -0.04732,0.0146 -0.06191,0 -0.0146,-0.0146 0.0092,-0.0435 0,-0.0619 -0.02611,-0.0522 -0.09772,-0.0716 -0.123828,-0.12383 -0.0092,-0.0185 0.0092,-0.0435 0,-0.0619 -0.01304,-0.0261 -0.04886,-0.0358 -0.06192,-0.0619 -0.0092,-0.0185 0.01461,-0.0473 0,-0.0619 -0.01458,-0.0146 -0.04732,0.0146 -0.06191,0 -0.02919,-0.0292 0.02919,-0.0946 0,-0.12382 -0.01461,-0.0146 -0.04127,0 -0.06191,0 -0.02064,0 -0.04128,0 -0.06191,0 -0.02273,0 -0.245163,-0.002 -0.247653,0 -0.01461,0.0146 0.01458,0.0473 0,0.0619 -0.01461,0.0146 -0.04732,-0.0146 -0.06191,0 -0.01461,0.0146 0.0146,0.0473 0,0.0619 -0.01461,0.0146 -0.04732,-0.0146 -0.06191,0 -0.0146,0.0146 0.01458,0.0473 0,0.0619 -0.1281,0.1281 0.005,-0.19576 -0.123827,0.0619 0,0.1651 0.02064,-0.0206 -0.06191,0.0619 -0.01693,0.0169 0.0168,0.21407 0,0.24766 -0.128836,0.25767 0.0043,-0.0662 -0.123827,0.0619 -0.02919,0.0292 0.01847,0.0869 0,0.12383 -0.01304,0.0261 -0.04886,0.0358 -0.06191,0.0619 -0.01945,0.0389 0.01945,0.20874 0,0.24765 -0.01304,0.0261 -0.04886,0.0358 -0.06191,0.0619 -0.01119,0.0224 0,0.2665 0,0.30957 0,0.015 -0.0021,0.18375 0,0.18574 0.0146,0.0146 0.04732,-0.0146 0.06191,0 0.02919,0.0292 -0.01847,0.0869 0,0.12383 0.01304,0.0261 0.04886,0.0358 0.06191,0.0619 0.0092,0.0185 -0.0092,0.0435 0,0.0619 0.01304,0.0261 0.04886,0.0358 0.06191,0.0619 0.01847,0.0369 -0.02919,0.0946 0,0.12382 0.01461,0.0146 0.04732,-0.0146 0.06192,0 0.01458,0.0146 -0.01461,0.0473 0,0.0619 0.01458,0.0146 0.04345,-0.009 0.06191,0 0.02611,0.013 0.03581,0.0489 0.06191,0.0619 0.01847,0.009 0.04732,-0.0146 0.06191,0 0.01458,0.0146 -0.0146,0.0473 0,0.0619 0.0021,0.002 0.170725,0 0.185741,0 0.04388,0 0.355473,0.008 0.37148,0 0.02611,-0.013 0.03581,-0.0489 0.06192,-0.0619 0.03692,-0.0185 0.08691,0.0185 0.123828,0 0.02611,-0.0131 0.04127,-0.0413 0.06191,-0.0619 0.02064,-0.0206 0.04886,-0.0358 0.06191,-0.0619 0.0081,-0.0163 0,-0.21528 0,-0.24765 0,-0.10319 0,-0.20638 0,-0.30957 0,-0.0206 0.0146,-0.0473 0,-0.0619 -0.01458,-0.0146 -0.04732,0.0146 -0.06191,0 -0.01458,-0.0146 0.01461,-0.0473 0,-0.0619 -0.01458,-0.0146 -0.04346,0.009 -0.06191,0 -0.01185,-0.006 -0.241729,-0.2358 -0.247656,-0.24765 -0.0092,-0.0185 0.01461,-0.0473 0,-0.0619 -0.01461,-0.0146 -0.04127,0 -0.06191,0 -0.04306,0 -0.287179,0.0112 -0.309568,0 -0.1822,-0.0911 0.09611,-0.0619 -0.18574,-0.0619 -0.10319,0 -0.20638,0 -0.309568,0 -0.02064,0 -0.04128,0 -0.06191,0 -0.02064,0 -0.04346,-0.009 -0.06191,0 -0.02611,0.0131 -0.04886,0.0358 -0.06191,0.0619 -0.0092,0.0185 0.0092,0.0435 0,0.0619 -0.01304,0.0261 -0.04886,0.0358 -0.06191,0.0619 -0.0092,0.0185 0,0.0413 0,0.0619 0,0.0206 0,0.0413 0,0.0619 0,0.10319 0,0.20638 0,0.30957 0,0.0279 -0.0094,0.16689 0,0.18574 0.01304,0.0261 0.04886,0.0358 0.06191,0.0619 0.0092,0.0185 -0.01458,0.0473 0,0.0619 0.01461,0.0146 0.04346,-0.009 0.06191,0 0.0743,0.0371 0.111446,0.14859 0.185741,0.18574 0.01847,0.009 0.04128,0 0.06191,0 0.02064,0.0206 0.03581,0.0489 0.06192,0.0619 0.01884,0.009 0.157856,0 0.18574,0 0.144466,0 0.288931,0 0.433396,0 0.123825,0 0.247652,0 0.37148,0 0.02064,0 0.04732,0.0146 0.06191,0 0.0146,-0.0146 -0.0092,-0.0435 0,-0.0619 0.128836,-0.25767 -0.0043,0.0662 0.123827,-0.0619 0.0146,-0.0146 -0.01458,-0.0473 0,-0.0619 0.0146,-0.0146 0.04732,0.0146 0.06191,0 0.01458,-0.0146 -0.0092,-0.0435 0,-0.0619 0.01304,-0.0261 0.04886,-0.0358 0.06191,-0.0619 0.0094,-0.0188 0,-0.15786 0,-0.18574 0,-0.0439 0.008,-0.35547 0,-0.37148 -0.01304,-0.0261 -0.04886,-0.0358 -0.06191,-0.0619 -0.0092,-0.0185 0.0092,-0.0435 0,-0.0619 -0.01304,-0.0261 -0.04128,-0.0413 -0.06191,-0.0619 -0.02064,-0.0206 -0.03581,-0.0489 -0.06191,-0.0619 -0.01847,-0.009 -0.04732,0.0146 -0.06191,0 -0.01458,-0.0146 0.0092,-0.0435 0,-0.0619 -0.0082,-0.0164 -0.169302,-0.17752 -0.185741,-0.18574 -0.03692,-0.0185 -0.09464,0.0292 -0.123827,0 -0.01458,-0.0146 0.01461,-0.0473 0,-0.0619 -0.01693,-0.0169 -0.214067,0.0168 -0.247653,0 -0.02611,-0.013 -0.03581,-0.0489 -0.06191,-0.0619 -0.01847,-0.009 -0.04128,0 -0.06191,0 -0.02064,0 -0.04127,0 -0.06191,0 -0.123828,0 -0.247655,0 -0.371483,0 -0.02919,0 -0.30676,-0.003 -0.309568,0 -0.01458,0.0146 0.01461,0.0473 0,0.0619 -0.01458,0.0146 -0.04732,-0.0146 -0.06191,0 -0.01458,0.0146 0.01461,0.0473 0,0.0619 -0.01458,0.0146 -0.04732,-0.0146 -0.06191,0 -0.01461,0.0146 0.01458,0.0473 0,0.0619 -0.01461,0.0146 -0.04732,-0.0146 -0.06191,0 -0.01458,0.0146 0.0146,0.0473 0,0.0619 -0.01458,0.0146 -0.04732,-0.0146 -0.06191,0 -0.01461,0.0146 0.0146,0.0473 0,0.0619 -0.01461,0.0146 -0.04732,-0.0146 -0.06192,0 -0.01458,0.0146 0,0.0413 0,0.0619 0,0.1032 0,0.20639 0,0.30957 0,0.20638 0,0.41276 0,0.61914 0,0.0206 0,0.0413 0,0.0619 0,0.0206 -0.01458,0.0473 0,0.0619 0.01461,0.0146 0.04732,-0.0146 0.06192,0 0.0146,0.0146 0,0.0413 0,0.0619 0.02064,0 0.04732,-0.0146 0.06191,0 0.0146,0.0146 -0.0092,0.0434 0,0.0619 0.01304,0.0261 0.04886,0.0358 0.06191,0.0619 0.0092,0.0185 -0.0092,0.0434 0,0.0619 0.01304,0.0261 0.04886,0.0358 0.06191,0.0619 0.0092,0.0185 -0.01458,0.0473 0,0.0619 0.01461,0.0146 0.04732,-0.0146 0.06191,0 0.128104,0.1281 -0.195754,-0.005 0.06191,0.12382 0.01847,0.009 0.04732,-0.0146 0.06191,0 0.0146,0.0146 -0.01458,0.0473 0,0.0619 0.0146,0.0146 0.04732,-0.0146 0.06191,0 0.128101,0.1281 -0.195757,-0.005 0.06191,0.12382 0.01627,0.008 0.215278,0 0.247655,0 0.02788,0 0.166896,0.009 0.18574,0 0.05221,-0.0261 0.07162,-0.0977 0.123828,-0.12382 0.01847,-0.009 0.04732,0.0146 0.06191,0 0.128101,-0.1281 -0.195757,0.005 0.06191,-0.12383 0.01847,-0.009 0.04732,0.0146 0.06191,0 0.0149,-0.0149 -0.0149,-0.23276 0,-0.24765 0.01458,-0.0146 0.04732,0.0146 0.06191,0 0.01265,-0.0127 -0.01228,-0.1612 0,-0.18574 0.01304,-0.0261 0.04886,-0.0358 0.06191,-0.0619 0.0168,-0.0336 -0.01693,-0.23071 0,-0.24765 0.01461,-0.0146 0.04732,0.0146 0.06192,0 0.02919,-0.0292 -0.01847,-0.0869 0,-0.12383 0.01304,-0.0261 0.04886,-0.0358 0.06191,-0.0619 0.0092,-0.0185 0,-0.0413 0,-0.0619 0,-0.0206 0,-0.0413 0,-0.0619 0,-0.12383 0,-0.24765 0,-0.37148 0,-0.14447 0,-0.28893 0,-0.4334 0,-0.0206 0.0146,-0.0473 0,-0.0619 -0.01458,-0.0146 -0.04732,0.0146 -0.06191,0 -0.128101,-0.1281 0.195755,0.005 -0.06192,-0.12383 -0.01847,-0.009 -0.04732,0.0146 -0.06191,0 -0.02919,-0.0292 0.02919,-0.0946 0,-0.12382 -0.0024,-0.002 -0.224917,0 -0.247652,0 -0.123828,0 -0.247656,0 -0.371483,0 -0.02064,0 -0.04732,-0.0146 -0.06191,0 -0.01461,0.0146 0.01458,0.0473 0,0.0619 -0.02919,0.0292 -0.09464,-0.0292 -0.123827,0 -0.0146,0.0146 0.0092,0.0435 0,0.0619 -0.128834,0.25767 0.0043,-0.0662 -0.123828,0.0619 -0.01458,0.0146 0,0.0413 0,0.0619 -0.02064,0 -0.04732,-0.0146 -0.06191,0 -0.0146,0.0146 0.01458,0.0473 0,0.0619 -0.0146,0.0146 -0.04732,-0.0146 -0.06191,0 -0.01458,0.0146 0.01461,0.0473 0,0.0619 -0.01458,0.0146 -0.04732,-0.0146 -0.06191,0 -0.01458,0.0146 0.01461,0.0473 0,0.0619 -0.01458,0.0146 -0.04732,-0.0146 -0.06191,0 -0.01461,0.0146 0,0.0413 0,0.0619 -0.02064,0 -0.04732,-0.0146 -0.06191,0 -0.01458,0.0146 0.02064,0.0619 0,0.0619 -0.02064,0 0,-0.0413 0,-0.0619 0,-0.0206 0,-0.0413 0,-0.0619"
       id="path719"
       inkscape:connector-curvature="0" />
    <path
       style="fill:none;stroke:#000000;stroke-width:0.26458332px;stroke-linecap:butt;stroke-linejoin:miter;stroke-opacity:1"
       d="M 90.886202,140.09431 Z"
       id="path731"
       inkscape:connector-curvature="0" />
    <text
       xml:space="preserve"
       style="font-style:normal;font-weight:normal;font-size:1.41111112px;line-height:1.25;font-family:sans-serif;letter-spacing:0px;word-spacing:0px;fill:#000000;fill-opacity:1;stroke:none;stroke-width:0.26458332"
       x="45.743427"
       y="173.90839"
       id="text737"><tspan
         sodipodi:role="line"
         id="tspan735"
         x="45.743427"
         y="173.90839"
         style="font-size:2.82222222px;stroke-width:0.26458332">Selected location</tspan></text>
    <path
       style="fill:none;stroke:#000000;stroke-width:0.26458332px;stroke-linecap:butt;stroke-linejoin:miter;stroke-opacity:1"
       d="m 25.632204,179.85956 c 18.945542,-0.12383 18.945542,-0.12383 18.945542,-0.12383"
       id="path739"
       inkscape:connector-curvature="0" />
    <path
       style="fill:none;stroke:#000000;stroke-width:0.26458332px;stroke-linecap:butt;stroke-linejoin:miter;stroke-opacity:1"
       d="m 44.577746,179.73573 c 12.135053,-0.12383 12.135053,-0.12383 12.135053,-0.12383 0.247654,0.12383 0.483706,0.27426 0.742963,0.37149 0.07729,0.029 0.165102,0 0.247654,0 0.04128,0 0.08467,0.013 0.123827,0 0.08756,-0.0292 0.160095,-0.0946 0.247654,-0.12383 0.03916,-0.013 0.09464,0.0292 0.123827,0 0.02919,-0.0292 -0.02919,-0.0946 0,-0.12383 0.02919,-0.0292 0.08467,0.0131 0.123827,0 0.08756,-0.0292 0.160095,-0.0946 0.247654,-0.12382 0.09967,-0.0332 0.41618,0.0396 0.495309,0 0.05221,-0.0261 0.07162,-0.0977 0.123827,-0.12383 0.03692,-0.0185 0.08467,0.013 0.123827,0 0.08756,-0.0292 0.160095,-0.0946 0.247654,-0.12383 0.07831,-0.0261 0.189281,0.0584 0.247654,0 0.02919,-0.0292 -0.02919,-0.0946 0,-0.12383 0.02919,-0.0292 0.09464,0.0292 0.123827,0 0.02919,-0.0292 -0.02919,-0.0946 0,-0.12382 0.02919,-0.0292 0.08691,0.0185 0.123827,0 0.05221,-0.0261 0.07162,-0.0977 0.123827,-0.12383 0.07384,-0.0369 0.189282,0.0584 0.247654,0 0.02919,-0.0292 -0.02919,-0.0946 0,-0.12383 0.02919,-0.0292 0.08691,0.0185 0.123827,0 0.05221,-0.0261 0.07162,-0.0977 0.123827,-0.12382 0.0491,-0.0245 0.346167,0.0253 0.371482,0 0.02919,-0.0292 -0.02919,-0.0946 0,-0.12383 0.02919,-0.0292 0.08691,0.0185 0.123827,0 0.05221,-0.0261 0.07162,-0.0977 0.123827,-0.12383 0.03692,-0.0185 0.09464,0.0292 0.123827,0 0.02919,-0.0292 -0.01846,-0.0869 0,-0.12383 0.02611,-0.0522 0.09772,-0.0716 0.123827,-0.12382 0.01846,-0.0369 -0.02919,-0.0946 0,-0.12383 0.06191,-0.0619 0.309568,0.0619 0.371481,0 0.02919,-0.0292 -0.02919,-0.0946 0,-0.12383 0.02919,-0.0292 0.08691,0.0185 0.123827,0 0.10442,-0.0522 0.143234,-0.19544 0.247654,-0.24765 0.03692,-0.0185 0.09464,0.0292 0.123827,0 0.02919,-0.0292 -0.02919,-0.0946 0,-0.12383 0.02919,-0.0292 0.08691,0.0185 0.123828,0 0.10442,-0.0522 0.143234,-0.19544 0.247654,-0.24765 0.03692,-0.0185 0.09464,0.0292 0.123827,0 0.02919,-0.0292 -0.01846,-0.0869 0,-0.12383 0.02611,-0.0522 0.08255,-0.0825 0.123827,-0.12383 0.04128,-0.0413 0.07162,-0.0977 0.123827,-0.12382 0.03692,-0.0185 0.08691,0.0185 0.123827,0 0.515339,-0.25767 -0.132376,0.009 0.123827,-0.24766 0.02919,-0.0292 0.09464,0.0292 0.123827,0 0.02919,-0.0292 -0.02919,-0.0946 0,-0.12382 0.05837,-0.0584 0.173818,0.0369 0.247654,0 0.0237,-0.0119 0.483457,-0.47161 0.495309,-0.49531 0.0854,-0.1708 -0.149962,-0.11076 0.123827,-0.24766 0.03692,-0.0185 0.08691,0.0185 0.123827,0 0.10442,-0.0522 0.143234,-0.19544 0.247654,-0.24765 0.03692,-0.0185 0.09464,0.0292 0.123827,0 0.02919,-0.0292 -0.01846,-0.0869 0,-0.12383 0.02611,-0.0522 0.09772,-0.0716 0.123827,-0.12383 0.01846,-0.0369 -0.01846,-0.0869 0,-0.12382 0.113984,-0.22797 0.257497,-0.0197 0.371481,-0.24766 0.03692,-0.0738 -0.05837,-0.18928 0,-0.24765 0.02919,-0.0292 0.09464,0.0292 0.123827,0 0.02919,-0.0292 -0.01846,-0.0869 0,-0.12383 0.05221,-0.10442 0.195444,-0.14323 0.247654,-0.24765 0.01846,-0.0369 -0.02919,-0.0946 0,-0.12383 0.02919,-0.0292 0.09464,0.0292 0.123828,0 0.02919,-0.0292 -0.01846,-0.0869 0,-0.12383 0.01185,-0.0237 0.471605,-0.48345 0.495308,-0.4953 0.03692,-0.0185 0.09464,0.0292 0.123827,0 0.0298,-0.0298 -0.0298,-0.46552 0,-0.49531 0.02919,-0.0292 0.09464,0.0292 0.123827,0 0.02919,-0.0292 -0.02919,-0.0946 0,-0.12383 0.02919,-0.0292 0.09464,0.0292 0.123827,0 0.05837,-0.0584 -0.05837,-0.18928 0,-0.24765 0.02919,-0.0292 0.09464,0.0292 0.123827,0 0.02919,-0.0292 -0.02919,-0.0946 0,-0.12383 0.02919,-0.0292 0.09464,0.0292 0.123827,0 0.05837,-0.0584 -0.05837,-0.18928 0,-0.24765 0.02919,-0.0292 0.09464,0.0292 0.123827,0 0.02919,-0.0292 -0.02919,-0.0947 0,-0.12383 0.02919,-0.0292 0.09464,0.0292 0.123827,0 0.05837,-0.0584 -0.05837,-0.18928 0,-0.24766 0.02919,-0.0292 0.09464,0.0292 0.123827,0 0.05837,-0.0584 -0.05837,-0.18928 0,-0.24765 0.02919,-0.0292 0.09464,0.0292 0.123827,0 0.02919,-0.0292 -0.02919,-0.0946 0,-0.12383 0.02919,-0.0292 0.09464,0.0292 0.123828,0 0.02919,-0.0292 -0.02919,-0.0946 0,-0.12382 0.02919,-0.0292 0.09464,0.0292 0.123827,0 0.05837,-0.0584 -0.05837,-0.18929 0,-0.24766 0.02919,-0.0292 0.09464,0.0292 0.123827,0 0.05837,-0.0584 -0.05837,-0.18928 0,-0.24765 0.02919,-0.0292 0.09464,0.0292 0.123827,0 0.05837,-0.0584 -0.05837,-0.18928 0,-0.24766 0.256202,-0.2562 -0.01002,0.39151 0.247654,-0.12382 0.01846,-0.0369 -0.01846,-0.0869 0,-0.12383 0.05221,-0.10442 0.195444,-0.14323 0.247654,-0.24766 0.01846,-0.0369 -0.02919,-0.0946 0,-0.12382 0.02919,-0.0292 0.09464,0.0292 0.123827,0 0.06191,-0.0619 -0.06191,-0.30957 0,-0.37148 0.02919,-0.0292 0.09464,0.0292 0.123827,0 0.05837,-0.0584 -0.05837,-0.18928 0,-0.24766 0.02919,-0.0292 0.09464,0.0292 0.123827,0 0.02919,-0.0292 -0.01846,-0.0869 0,-0.12382 0.410683,-0.41069 -0.05837,0.11674 0.123827,-0.24766 0.02611,-0.0522 0.09772,-0.0716 0.123827,-0.12383 0.01846,-0.0369 -0.01846,-0.0869 0,-0.12382 0.02611,-0.0522 0.09772,-0.0716 0.123827,-0.12383 0.01846,-0.0369 -0.02919,-0.0946 0,-0.12383 0.02919,-0.0292 0.09464,0.0292 0.123828,0 0.05837,-0.0584 -0.03692,-0.17381 0,-0.24765 0.02611,-0.0522 0.09772,-0.0716 0.123827,-0.12383 0.01846,-0.0369 -0.01846,-0.0869 0,-0.12383 0.02611,-0.0522 0.09772,-0.0716 0.123827,-0.12382 0.01846,-0.0369 -0.02919,-0.0946 0,-0.12383 0.02919,-0.0292 0.08691,0.0185 0.123827,0 0.03288,-0.0164 0.355042,-0.3386 0.371481,-0.37148 0.01846,-0.0369 -0.01846,-0.0869 0,-0.12383 0.02611,-0.0522 0.08255,-0.0826 0.123827,-0.12382 0.04128,-0.0413 0.07162,-0.0977 0.123827,-0.12383 0.03692,-0.0185 0.08691,0.0185 0.123827,0 0.03288,-0.0164 0.355043,-0.33861 0.371481,-0.37148 0.01846,-0.0369 -0.01846,-0.0869 0,-0.12383 0.0261,-0.0522 0.08255,-0.0825 0.123827,-0.12383 0.04128,-0.0413 0.07162,-0.0977 0.123828,-0.12382 0.03692,-0.0185 0.09464,0.0292 0.123827,0 0.02919,-0.0292 -0.01846,-0.0869 0,-0.12383 0.257669,-0.51534 -0.0085,0.13237 0.247654,-0.12383 0.08412,-0.0841 -0.126611,-0.24626 0.123827,-0.37148 0.03692,-0.0185 0.08691,0.0185 0.123827,0 0.10442,-0.0522 0.143234,-0.19544 0.247654,-0.24765 0.03692,-0.0185 0.09464,0.0292 0.123827,0 0.02919,-0.0292 -0.01846,-0.0869 0,-0.12383 0.02611,-0.0522 0.09772,-0.0716 0.123827,-0.12383 0.01846,-0.0369 -0.01846,-0.0869 0,-0.12383 0.136894,-0.27378 0.07685,-0.0384 0.247654,-0.12382 0.05221,-0.0261 0.07162,-0.0977 0.123827,-0.12383 0.03692,-0.0185 0.09464,0.0292 0.123827,0 0.02919,-0.0292 -0.02919,-0.0946 0,-0.12383 0.256203,-0.2562 -0.01002,0.39152 0.247655,-0.12382 0.01846,-0.0369 -0.01846,-0.0869 0,-0.12383 0.02611,-0.0522 0.09772,-0.0716 0.123827,-0.12383 0.01846,-0.0369 -0.02919,-0.0946 0,-0.12382 0.02531,-0.0253 0.322384,0.0245 0.371481,0 0.515339,-0.25767 -0.132376,0.009 0.123827,-0.24766 0.02919,-0.0292 0.09464,0.0292 0.123827,0 0.256203,-0.2562 -0.391511,0.01 0.123827,-0.24765 0.03692,-0.0185 0.08691,0.0185 0.123827,0 0.10442,-0.0522 0.143234,-0.19545 0.247654,-0.24766 0.03692,-0.0185 0.08691,0.0185 0.123827,0 0.273789,-0.13689 0.03843,-0.0768 0.123828,-0.24765 0.05221,-0.10442 0.195444,-0.14324 0.247654,-0.24766 0.01846,-0.0369 -0.02919,-0.0946 0,-0.12382 0.02919,-0.0292 0.08691,0.0185 0.123827,0 0.05221,-0.0261 0.07162,-0.0977 0.123827,-0.12383 0.170802,-0.0854 0.11076,0.14996 0.247654,-0.12383 0.06604,-0.13208 -0.122583,-0.16551 0.123827,-0.24765 0.563696,0 0.0071,0.0584 0.371481,-0.12383 0.07384,-0.0369 0.189282,0.0584 0.247654,0 0.02919,-0.0292 -0.02919,-0.0946 0,-0.12382 0.02531,-0.0253 0.322385,0.0245 0.371482,0 0.410682,-0.41069 -0.116746,0.0584 0.247654,-0.12383 0.10442,-0.0522 0.143234,-0.19545 0.247654,-0.24766 0.07384,-0.0369 0.189281,0.0584 0.247654,0 0.02919,-0.0292 -0.01846,-0.0869 0,-0.12382 0.02611,-0.0522 0.08255,-0.0825 0.123827,-0.12383 0.04128,-0.0413 0.07162,-0.0977 0.123827,-0.12383 0.0551,-0.0276 0.438672,0.0189 0.495308,0 0.05538,-0.0185 0.07162,-0.0977 0.123828,-0.12382 0.132162,-0.0661 0.115491,0.0661 0.247654,0 0.05221,-0.0261 0.07526,-0.0915 0.123827,-0.12383 0.07679,-0.0512 0.165103,-0.0826 0.247654,-0.12383 0.08255,-0.0413 0.160095,-0.0946 0.247654,-0.12383 0.07832,-0.0261 0.173818,0.0369 0.247654,0 0.05221,-0.0261 0.07162,-0.0977 0.123827,-0.12382 0.03692,-0.0185 0.08255,0 0.123827,0 0.08255,-0.0413 0.17086,-0.0726 0.247654,-0.12383 0.04857,-0.0324 0.07162,-0.0977 0.123828,-0.12383 0.07384,-0.0369 0.173817,0.0369 0.247654,0 0.05221,-0.0261 0.07162,-0.0977 0.123827,-0.12382 0.0491,-0.0246 0.346166,0.0253 0.371481,0 0.02919,-0.0292 -0.02919,-0.0946 0,-0.12383 0.02919,-0.0292 0.08691,0.0185 0.123827,0 0.05221,-0.0261 0.07162,-0.0977 0.123827,-0.12383 0.03692,-0.0185 0.08467,0.013 0.123827,0 0.175118,-0.0584 0.320191,-0.18928 0.495308,-0.24765 0.07832,-0.0261 0.173818,0.0369 0.247655,0 0.05221,-0.0261 0.07162,-0.0977 0.123827,-0.12383 0.07855,-0.0393 0.538694,0.0402 0.619135,0 0.05221,-0.0261 0.07162,-0.0977 0.123827,-0.12383 0.03692,-0.0185 0.08255,0 0.123827,0 0.04128,0 0.08255,0 0.123827,0 0.03003,0 0.367499,0.004 0.371481,0 0.02919,-0.0292 -0.02919,-0.0946 0,-0.12382 0.03388,-0.0339 0.428134,0.0336 0.495309,0 0.05221,-0.0261 0.07162,-0.0977 0.123827,-0.12383 0.03768,-0.0188 0.315715,0 0.371481,0"
       id="path4450"
       inkscape:connector-curvature="0" />
    <path
       style="fill:none;stroke:#000000;stroke-width:0.26458332px;stroke-linecap:butt;stroke-linejoin:miter;stroke-opacity:1"
       d="M 79.620807,190.50868 C 79.86846,143.94971 79.86846,143.94971 79.86846,143.94971"
       id="path4452"
       inkscape:connector-curvature="0" />
    <path
       style="fill:none;stroke:#000000;stroke-width:0.26458332px;stroke-linecap:butt;stroke-linejoin:miter;stroke-opacity:1"
       d="m 83.954754,159.55192 c 33.433306,-4.08629 33.433306,-4.08629 33.433306,-4.08629"
       id="path4454"
       inkscape:connector-curvature="0" />
    <path
       style="fill:none;stroke:#000000;stroke-width:0.26458332px;stroke-linecap:butt;stroke-linejoin:miter;stroke-opacity:1"
       d="m 51.388234,163.1429 c 2.97185,32.31887 2.97185,32.31887 2.97185,32.31887"
       id="path4456"
       inkscape:connector-curvature="0" />
    <path
       style="fill:none;stroke:#000000;stroke-width:0.26458332px;stroke-linecap:butt;stroke-linejoin:miter;stroke-opacity:1"
       d="m 31.204421,167.2292 c 22.660356,-3.21951 22.660356,-3.21951 22.660356,-3.21951 13.744805,-13.12567 13.744805,-13.12567 13.744805,-13.12567 2.971849,-13.49715 2.971849,-13.49715 2.971849,-13.49715"
       id="path4458"
       inkscape:connector-curvature="0" />
    <path
       style="fill:none;stroke:#000000;stroke-width:0.26458332px;stroke-linecap:butt;stroke-linejoin:miter;stroke-opacity:1"
       d="M 51.388234,163.1429 C 51.63589,135.90095 51.63589,135.90095 51.63589,135.90095"
       id="path4460"
       inkscape:connector-curvature="0" />
    <path
       style="fill:none;stroke:#000000;stroke-width:0.26458332px;stroke-linecap:butt;stroke-linejoin:miter;stroke-opacity:1"
       d="m 98.318694,189.33232 c -29.80691,5.2655 -54.190568,13.65652 -87.174258,10.15382"
       id="path4464"
       inkscape:connector-curvature="0" />
    <path
       style="fill:none;stroke:#000000;stroke-width:0.26458332px;stroke-linecap:butt;stroke-linejoin:miter;stroke-opacity:1"
       d="m 13.659198,166.53712 c 0,19.6132 0,19.6132 0,19.6132"
       id="path4468"
       inkscape:connector-curvature="0" />
    <path
       style="fill:none;stroke:#000000;stroke-width:0.26458332px;stroke-linecap:butt;stroke-linejoin:miter;stroke-opacity:1"
       d="m 31.204421,167.2292 c -10.19027,1.40933 -10.19027,1.40933 -10.19027,1.40933 l 0.175118,11.03243"
       id="path4470"
       inkscape:connector-curvature="0" />
    <path
       style="fill:none;stroke:#000000;stroke-width:0.26458332px;stroke-linecap:butt;stroke-linejoin:miter;stroke-opacity:1"
       d="m 12.783608,179.67096 c 12.848596,0.1886 12.848596,0.1886 12.848596,0.1886"
       id="path4472"
       inkscape:connector-curvature="0" />
    <path
       style="fill:none;stroke:#000000;stroke-width:0.26458332px;stroke-linecap:butt;stroke-linejoin:miter;stroke-opacity:1"
       d="m 13.659198,186.15032 c 0.175118,27.14328 0.175118,27.14328 0.175118,27.14328"
       id="path4474"
       inkscape:connector-curvature="0" />
    <path
       style="fill:none;stroke:#000000;stroke-width:0.26458332px;stroke-linecap:butt;stroke-linejoin:miter;stroke-opacity:1"
       d="m 79.620805,190.50868 c 0.758322,45.20001 0.758322,45.20001 0.758322,45.20001"
       id="path4476"
       inkscape:connector-curvature="0" />
    <path
       style="fill:none;stroke:#000000;stroke-width:0.26458332px;stroke-linecap:butt;stroke-linejoin:miter;stroke-opacity:1"
       d="m 54.360084,195.46177 c 1.502532,31.31591 1.502532,31.31591 1.502532,31.31591"
       id="path4478"
       inkscape:connector-curvature="0" />
    <text
       xml:space="preserve"
       style="font-style:normal;font-weight:normal;font-size:1.41111112px;line-height:1.25;font-family:sans-serif;letter-spacing:0px;word-spacing:0px;fill:#000000;fill-opacity:1;stroke:none;stroke-width:0.26458332"
       x="23.55336"
       y="199.67818"
       id="text4482"><tspan
         sodipodi:role="line"
         id="tspan4480"
         x="23.55336"
         y="199.67818"
         style="stroke-width:0.26458332">Whitemud Dr NW</tspan></text>
    <path
       style="fill:none;stroke:#000000;stroke-width:0.26458332px;stroke-linecap:butt;stroke-linejoin:miter;stroke-opacity:1"
       d="m 76.657871,155.8987 c -0.260797,0.0383 -0.443825,0.20002 -0.656693,0.30646 -0.07118,0.0356 -0.247018,-0.0157 -0.306456,0.0438 -0.159885,0.15988 -0.273709,0.2737 -0.437796,0.43779 -0.04437,0.0444 0,0.36808 0,0.4378 0,0.14868 0.02069,0.37093 0.08756,0.43779 0.05329,0.0533 0.722826,0.10991 0.831811,0.2189 0.06442,0.0644 0.259469,0.25626 0.306456,0.35023 0.06035,0.1207 0.0059,0.3124 0.08756,0.39402 0.06633,0.0663 0.03696,-0.12452 0.04378,-0.13134 0.03945,-0.0394 0.07483,-0.11861 0.08756,-0.13134 0.02064,-0.0206 0.06692,0.0206 0.08756,0 0.02188,-0.0219 -0.02188,-0.10945 0,-0.13134 0.138634,-0.13863 0.16782,-0.38671 0.306457,-0.52535 0.07205,-0.072 0.03939,-0.34146 0.08756,-0.4378 0.05824,-0.11648 0.12418,-0.1608 0.175117,-0.26267 0.04176,-0.0835 0,-0.29858 0,-0.39402 0,-0.0837 0.05327,-0.47208 0,-0.52535 -0.02654,-0.0265 -0.472625,0.009 -0.394015,0.0876"
       id="path4490"
       inkscape:connector-curvature="0" />
    <path
       style="fill:none;stroke:#000000;stroke-width:0.26458332px;stroke-linecap:butt;stroke-linejoin:miter;stroke-opacity:1"
       d="m 83.618807,161.41491 c 0.02238,0.26427 -0.16628,-0.009 -0.218895,0.0438 -0.02919,0.0292 -0.01461,0.10216 -0.04378,0.13134 -0.02729,0.0273 -0.281119,0.0184 -0.350236,0.0876 -0.02919,0.0292 0.02919,0.14593 0,0.17512 -0.130935,0.13093 -0.166331,0.79682 0,0.96315 0.13317,0.13317 0.471834,-0.0486 0.656693,0.0438 0.09199,0.046 -7.94e-4,0.0867 0.04378,0.13134 0.20837,0.20837 0.09591,0.10426 0.218895,0.35023 0.02228,0.0446 -0.03471,0.18419 0,0.2189 0.02193,0.0219 0.05886,0.10264 0.08756,0.13134 0.02064,0.0206 0.08756,-0.0292 0.08756,0 0,0.0413 -0.03742,-0.35659 0,-0.39402 0.03662,-0.0366 0.04617,-0.17751 0.08756,-0.2189 0.02919,-0.0292 0.05836,0.0292 0.08756,0 0.03151,-0.0315 0.209878,-0.28841 0.218898,-0.30645 0.05598,-0.11196 0.158268,-0.14142 0.218898,-0.26268 0.08181,-0.16361 0.01241,-0.89127 -0.131339,-0.96315 -0.324528,-0.16226 -0.445471,-0.0438 -0.78803,-0.0438"
       id="path4494"
       inkscape:connector-curvature="0" />
    <text
       xml:space="preserve"
       style="font-style:normal;font-weight:normal;font-size:1.41111112px;line-height:1.25;font-family:sans-serif;letter-spacing:0px;word-spacing:0px;fill:#000000;fill-opacity:1;stroke:none;stroke-width:0.26458332"
       x="71.272987"
       y="154.80421"
       id="text4498"><tspan
         sodipodi:role="line"
         id="tspan4496"
         x="71.272987"
         y="154.80421"
         style="stroke-width:0.26458332">Quiznos</tspan></text>
    <text
       xml:space="preserve"
       style="font-style:normal;font-weight:normal;font-size:1.41111112px;line-height:1.25;font-family:sans-serif;letter-spacing:0px;word-spacing:0px;fill:#000000;fill-opacity:1;stroke:none;stroke-width:0.26458332"
       x="85.151093"
       y="162.55318"
       id="text4502"><tspan
         sodipodi:role="line"
         id="tspan4500"
         x="85.151093"
         y="162.55318"
         style="stroke-width:0.26458332">Tim Hortons</tspan></text>
    <text
       xml:space="preserve"
       style="font-style:normal;font-weight:normal;font-size:1.41111112px;line-height:1.25;font-family:sans-serif;letter-spacing:0px;word-spacing:0px;fill:#000000;fill-opacity:1;stroke:none;stroke-width:0.26458332"
       x="86.552032"
       y="163.91034"
       id="text4506"><tspan
         sodipodi:role="line"
         id="tspan4504"
         x="86.552032"
         y="163.91034"
         style="stroke-width:0.26458332">(Warning, Sharp Curbs)</tspan></text>
  </g>
</svg>
