<?xml version="1.0" encoding="UTF-8" standalone="no"?>
<!-- Created with Inkscape (http://www.inkscape.org/) -->

<svg
   xmlns:osb="http://www.openswatchbook.org/uri/2009/osb"
   xmlns:dc="http://purl.org/dc/elements/1.1/"
   xmlns:cc="http://creativecommons.org/ns#"
   xmlns:rdf="http://www.w3.org/1999/02/22-rdf-syntax-ns#"
   xmlns:svg="http://www.w3.org/2000/svg"
   xmlns="http://www.w3.org/2000/svg"
   xmlns:sodipodi="http://sodipodi.sourceforge.net/DTD/sodipodi-0.dtd"
   xmlns:inkscape="http://www.inkscape.org/namespaces/inkscape"
   width="540"
   height="960"
   viewBox="0 0 142.875 254"
   version="1.1"
   id="svg4629"
   sodipodi:docname="UserRecordViewScrolledDown.svg"
   inkscape:version="0.92.3 (2405546, 2018-03-11)">
  <defs
     id="defs4623">
    <linearGradient
       id="linearGradient6811"
       osb:paint="solid">
      <stop
         style="stop-color:#000000;stop-opacity:1;"
         offset="0"
         id="stop6809" />
    </linearGradient>
  </defs>
  <sodipodi:namedview
     id="base"
     pagecolor="#ffffff"
     bordercolor="#666666"
     borderopacity="1.0"
     inkscape:pageopacity="0.0"
     inkscape:pageshadow="2"
     inkscape:zoom="0.75544332"
     inkscape:cx="436.85353"
     inkscape:cy="462.54305"
     inkscape:document-units="mm"
     inkscape:current-layer="layer1"
     showgrid="false"
     inkscape:window-width="1920"
     inkscape:window-height="1017"
     inkscape:window-x="-8"
     inkscape:window-y="-8"
     inkscape:window-maximized="1"
     units="px">
    <inkscape:grid
       type="xygrid"
       id="grid4718" />
  </sodipodi:namedview>
  <metadata
     id="metadata4626">
    <rdf:RDF>
      <cc:Work
         rdf:about="">
        <dc:format>image/svg+xml</dc:format>
        <dc:type
           rdf:resource="http://purl.org/dc/dcmitype/StillImage" />
        <dc:title></dc:title>
      </cc:Work>
    </rdf:RDF>
  </metadata>
  <g
     inkscape:label="Layer 1"
     inkscape:groupmode="layer"
     id="layer1"
     transform="translate(0,-42.99997)">
    <rect
       style="fill:#000000;fill-opacity:0;stroke-width:0.1;stroke-miterlimit:4;stroke-dasharray:none"
       id="rect4796"
       width="51.834904"
       height="25.567217"
       x="3.1521225"
       y="61.991714" />
    <text
       xml:space="preserve"
       style="font-style:normal;font-weight:normal;font-size:7.05555556px;line-height:1.25;font-family:sans-serif;letter-spacing:0px;word-spacing:0px;fill:#000000;fill-opacity:1;stroke:none;stroke-width:0.26458332;"
       x="21.364388"
       y="87.909164"
       id="text6905"><tspan
         sodipodi:role="line"
         id="tspan6903"
         x="21.364388"
         y="97.564659"
         style="stroke-width:0.26458332;font-size:7.05555556px;" /></text>
    <rect
       style="fill:#000000;fill-opacity:0;stroke:#000000;stroke-width:1.01899719;stroke-miterlimit:4;stroke-dasharray:none;stroke-opacity:1"
       id="rect6948"
       width="62.528534"
       height="10.156837"
       x="34.323116"
       y="51.834877" />
    <text
       xml:space="preserve"
       style="font-style:normal;font-weight:normal;font-size:7.05555534px;line-height:1.25;font-family:sans-serif;letter-spacing:0px;word-spacing:0px;fill:#000000;fill-opacity:1;stroke:none;stroke-width:0.26458332"
       x="48.332546"
       y="58.489357"
       id="text6952"><tspan
         sodipodi:role="line"
         id="tspan6950"
         x="48.332546"
         y="58.489357"
         style="stroke-width:0.26458332">Problem 1</tspan></text>
    <rect
       style="fill:#000000;fill-opacity:0;stroke:#000000;stroke-width:1.58749998;stroke-miterlimit:4;stroke-dasharray:none;stroke-opacity:1"
       id="rect1496"
       width="141.49529"
       height="252.87029"
       x="1.7511792"
       y="44.129688" />
    <rect
       style="fill:#000000;fill-opacity:0;stroke:#000000;stroke-width:1.01899719;stroke-miterlimit:4;stroke-dasharray:none;stroke-opacity:1"
       id="rect6948-0"
       width="62.528534"
       height="10.156837"
       x="34.229836"
       y="69.52179" />
    <text
       xml:space="preserve"
       style="font-style:normal;font-weight:normal;font-size:7.05555534px;line-height:1.25;font-family:sans-serif;letter-spacing:0px;word-spacing:0px;fill:#000000;fill-opacity:1;stroke:none;stroke-width:0.26458332"
       x="51.134434"
       y="76.701622"
       id="text2167"><tspan
         sodipodi:role="line"
         id="tspan2165"
         x="51.134434"
         y="76.701622"
         style="stroke-width:0.26458332">Record 1</tspan></text>
    <rect
       style="fill:#000000;fill-opacity:0;stroke:#000000;stroke-width:1.27615857;stroke-miterlimit:4;stroke-dasharray:none;stroke-opacity:1"
       id="rect2169"
       width="47.242947"
       height="12.91983"
       x="16.784039"
       y="86.224152" />
    <text
       xml:space="preserve"
       style="font-style:normal;font-weight:normal;font-size:7.05555534px;line-height:1.25;font-family:sans-serif;letter-spacing:0px;word-spacing:0px;fill:#000000;fill-opacity:1;stroke:none;stroke-width:0.26458332"
       x="18.912735"
       y="95.614357"
       id="text2173"><tspan
         sodipodi:role="line"
         id="tspan2171"
         x="18.912735"
         y="95.614357"
         style="stroke-width:0.26458332">Edit Record</tspan></text>
    <rect
       style="fill:#000000;fill-opacity:0;stroke:#000000;stroke-width:1.6914947;stroke-miterlimit:4;stroke-dasharray:none;stroke-opacity:1"
       id="rect2175"
       width="52.781822"
       height="12.537965"
       x="75.01899"
       y="85.84301" />
    <text
       xml:space="preserve"
       style="font-style:normal;font-weight:normal;font-size:7.05555534px;line-height:1.25;font-family:sans-serif;letter-spacing:0px;word-spacing:0px;fill:#000000;fill-opacity:1;stroke:none;stroke-width:0.26458332"
       x="75.650948"
       y="94.563652"
       id="text2179"><tspan
         sodipodi:role="line"
         id="tspan2177"
         x="75.650948"
         y="94.563652"
         style="stroke-width:0.26458332">Delete Record</tspan></text>
    <text
       xml:space="preserve"
       style="font-style:normal;font-weight:normal;font-size:7.05555534px;line-height:1.25;font-family:sans-serif;letter-spacing:0px;word-spacing:0px;fill:#000000;fill-opacity:1;stroke:none;stroke-width:0.26458332"
       x="6.6544805"
       y="120.83134"
       id="text2189"><tspan
         sodipodi:role="line"
         id="tspan2187"
         x="6.6544805"
         y="120.83134"
         style="stroke-width:0.26458332">Record Body location:</tspan></text>
    <path
       style="fill:none;stroke:#000000;stroke-width:0.26458332px;stroke-linecap:butt;stroke-linejoin:miter;stroke-opacity:1"
       d="m 109.97405,120.4811 c 0,-1.05071 0,-2.10142 0,-3.15212 0,-0.11675 0,-0.23349 0,-0.35024 0,-0.11674 0.0825,-0.26768 0,-0.35023 -0.0825,-0.0826 -0.26768,0.0825 -0.35023,0 -0.16511,-0.16511 0.1651,-0.53537 0,-0.70048 -0.0826,-0.0826 -0.26769,0.0826 -0.35024,0 -0.17512,-0.17511 0.17512,-0.87558 0,-1.0507 -0.0826,-0.0825 -0.26768,0.0825 -0.35023,0 -0.16511,-0.16511 0.1651,-0.53537 0,-0.70047 -0.0825,-0.0825 -0.26769,0.0825 -0.35024,0 -0.1651,-0.16511 0.1651,-0.53537 0,-0.70048 -0.0825,-0.0826 -0.26769,0.0825 -0.35024,0 -0.23196,-0.23196 0.23197,-0.4685 0,-0.70047 -0.0825,-0.0825 -0.26768,0.0825 -0.35023,0 -0.0825,-0.0825 0,-0.23349 0,-0.35023 0,-0.11675 -0.11675,-0.35024 0,-0.35024 0.11675,0 0,0.46698 0,0.35024 0,-0.23349 0,-0.46699 0,-0.70047 0,-0.11675 0.0522,-0.24582 0,-0.35024 -0.0738,-0.14767 -0.2764,-0.20256 -0.35024,-0.35024 -0.0522,-0.10442 0,-0.23349 0,-0.35023 0,-0.11675 0,-0.23349 0,-0.35024 0,-0.70047 0,-1.40094 0,-2.10141 0,-0.11675 -0.0825,-0.26769 0,-0.35024 0.16511,-0.1651 0.53537,0.1651 0.70047,0 0.0825,-0.0825 -0.0825,-0.26768 0,-0.35023 0.0843,-0.0843 1.31667,0.0843 1.40095,0 0.0825,-0.0826 -0.0826,-0.26769 0,-0.35024 0.0958,-0.0958 1.21094,0.095 1.40094,0 0.14767,-0.0738 0.20256,-0.2764 0.35024,-0.35024 0.0906,-0.0453 1.85316,0 2.10141,0 0.11675,0 0.26769,0.0825 0.35024,0 0.0825,-0.0825 -0.0825,-0.26768 0,-0.35023 0.0494,-0.0494 0.97886,-0.0359 1.0507,0 0.29535,0.14767 0.40513,0.5528 0.70048,0.70047 0.10442,0.0522 0.26768,-0.0825 0.35023,0 0.0826,0.0825 -0.0825,0.26768 0,0.35024 0.0826,0.0825 0.26769,-0.0826 0.35024,0 0.1651,0.1651 -0.1651,0.53536 0,0.70047 0.0825,0.0825 0.26768,-0.0826 0.35023,0 0.0826,0.0825 -0.0825,0.26768 0,0.35023 0.0826,0.0825 0.26769,-0.0825 0.35024,0 0.0826,0.0825 -0.0825,0.26769 0,0.35024 0.0826,0.0825 0.26769,-0.0825 0.35024,0 0.1651,0.1651 -0.10442,0.49163 0,0.70047 0.0738,0.14767 0.2764,0.20256 0.35023,0.35024 0.10442,0.20884 -0.1651,0.53536 0,0.70047 0.0825,0.0825 0.26769,-0.0825 0.35024,0 0.1651,0.1651 -0.1651,0.53537 0,0.70047 0.0825,0.0825 0.26768,-0.0825 0.35023,0 0.0141,0.0141 0,1.27232 0,1.40094 0,0.11675 0,0.23349 0,0.35024 0,0.11674 0.0826,0.26768 0,0.35023 -0.0825,0.0825 -0.26768,-0.0826 -0.35023,0 -0.1651,0.16511 0.1651,0.53537 0,0.70048 -0.0825,0.0825 -0.26769,-0.0825 -0.35024,0 0,0.93396 0.11675,-0.11675 -0.35023,0.35023 -0.1651,0.1651 0.1651,0.53537 0,0.70047 -0.0826,0.0825 -0.26769,-0.0825 -0.35024,0 -0.0825,0.0825 0,0.23349 0,0.35024 0,0.11675 0,0.23349 0,0.35023 0,1.05071 0,2.10142 0,3.15213 0,0.12862 -0.0141,1.38685 0,1.40094 0.0826,0.0825 0.26769,-0.0825 0.35024,0 0.10845,0.10845 -0.10845,1.64273 0,1.75118 0.0825,0.0825 0.26768,-0.0825 0.35023,0 0.0825,0.0825 -0.0825,0.26768 0,0.35024 0.0825,0.0825 0.35024,-0.11675 0.35024,0 0,0.11674 -0.46698,0 -0.35024,0 1.05071,0 2.10142,0 3.15213,0 0.11674,0 0.26768,0.0825 0.35023,0 0.0825,-0.0826 -0.0825,-0.26769 0,-0.35024 0.10845,-0.10845 1.64273,0.10845 1.75118,0 0.0825,-0.0825 -0.0825,-0.26768 0,-0.35024 0.17512,-0.17511 0.87559,0.17512 1.05071,0 0.0825,-0.0825 -0.0825,-0.26768 0,-0.35023 0.0843,-0.0843 1.31666,0.0843 1.40094,0 0.0825,-0.0826 -0.0825,-0.26769 0,-0.35024 0.17512,-0.17512 0.87559,0.17512 1.05071,0 0.46698,-0.46698 -0.58373,-0.35023 0.35023,-0.35023 0.11675,0 0.23349,0 0.35024,0 0.11675,0 0.26769,0.0825 0.35024,0 0.0825,-0.0825 -0.0825,-0.26769 0,-0.35024 0.0825,-0.0825 0.24581,0.0522 0.35023,0 0.14767,-0.0738 0.20257,-0.2764 0.35024,-0.35024 0.10442,-0.0522 0.26768,0.0826 0.35023,0 0.0826,-0.0825 -0.0825,-0.26768 0,-0.35023 0.0826,-0.0825 0.26769,0.0825 0.35024,0 0.0825,-0.0825 -0.0825,-0.26768 0,-0.35024 0.0825,-0.0825 0.26768,0.0826 0.35023,0 0.0826,-0.0825 -0.0825,-0.26768 0,-0.35023 0.0826,-0.0826 0.26769,0.0825 0.35024,0 0.23196,-0.23197 -0.23196,-0.46851 0,-0.70048 0.0825,-0.0826 0.26769,0.0826 0.35024,0 0.15566,-0.15565 -0.27241,-0.66155 0.35023,-0.35023 0.77439,0.38719 0.10869,0.21737 0.35024,0.70047 0.7288,1.4576 -0.0242,-0.37441 0.70047,0.35024 0.0825,0.0825 -0.0825,0.26768 0,0.35023 0.0825,0.0826 0.26769,-0.0825 0.35024,0 0.0826,0.0826 -0.0825,0.26769 0,0.35024 0.0826,0.0825 0.26768,-0.0825 0.35023,0 0.0843,0.0843 -0.0843,1.31666 0,1.40094 0.0825,0.0825 0.26769,-0.0825 0.35024,0 0.0113,0.0113 0,0.96577 0,1.05071 0,0.58373 0,1.16745 0,1.75118 0,0.11674 0.0825,0.26768 0,0.35024 -0.0825,0.0825 -0.26769,-0.0826 -0.35024,0 -0.0825,0.0825 0.0825,0.26768 0,0.35023 -0.1651,0.1651 -0.53537,-0.1651 -0.70047,0 -0.0825,0.0825 0.0825,0.26768 0,0.35024 -0.0825,0.0825 -0.26768,-0.0826 -0.35024,0 -0.0825,0.0825 0.0826,0.26768 0,0.35023 -0.0825,0.0825 -0.26768,-0.0825 -0.35023,0 -0.0825,0.0825 0.0825,0.26769 0,0.35024 -0.1651,0.1651 -0.53537,-0.1651 -0.70047,0 -0.0825,0.0825 0.0825,0.26768 0,0.35024 -0.0825,0.0825 -0.26769,-0.0826 -0.35024,0 -0.0825,0.0825 0.0825,0.26768 0,0.35023 -0.0825,0.0826 -0.24581,-0.0522 -0.35024,0 -0.14767,0.0738 -0.20256,0.2764 -0.35023,0.35024 -0.20884,0.10442 -0.53537,-0.16511 -0.70047,0 -0.0825,0.0825 0.0825,0.26768 0,0.35023 -0.17512,0.17512 -0.87559,-0.17512 -1.05071,0 -0.0825,0.0825 0.0825,0.26769 0,0.35024 -0.0843,0.0843 -1.31667,-0.0843 -1.40094,0 -0.0825,0.0825 0.0825,0.26768 0,0.35023 -0.23197,0.23197 -0.46851,-0.23196 -0.70047,0 -0.0826,0.0825 0.0825,0.26769 0,0.35024 -0.17512,0.17512 -0.8756,-0.17512 -1.05071,0 -0.0825,0.0825 0.0825,0.26768 0,0.35024 -0.16511,0.1651 -0.53537,-0.16511 -0.70047,0 -0.0826,0.0825 0.0825,0.26768 0,0.35023 -0.0826,0.0826 -0.26769,-0.0825 -0.35024,0 -0.1651,0.16511 0.1651,0.53537 0,0.70047 -0.0825,0.0825 -0.26768,-0.0825 -0.35023,0 -0.0826,0.0825 0.0826,0.26769 0,0.35024 -0.0826,0.0825 -0.26769,-0.0825 -0.35024,0 -0.1651,0.1651 0.1651,0.53537 0,0.70047 -0.0825,0.0825 -0.26769,-0.0825 -0.35024,0 -0.0825,0.0825 0,0.23349 0,0.35024 0,0.11674 0,0.23349 0,0.35023 0,1.51769 0,3.03538 0,4.55307 0,0.16513 -0.0159,1.7353 0,1.75118 0.0826,0.0825 0.26769,-0.0826 0.35024,0 0.0843,0.0843 -0.0843,1.31666 0,1.40094 0.0826,0.0825 0.26768,-0.0825 0.35024,0 0.17511,0.17512 -0.17512,0.87559 0,1.05071 0.0826,0.0825 0.26768,-0.0826 0.35023,0 0.0843,0.0843 -0.0843,1.31666 0,1.40094 0.0825,0.0825 0.26768,-0.0825 0.35024,0 0.0825,0.0825 -0.0522,0.24582 0,0.35024 0.0738,0.14767 0.2764,0.20256 0.35023,0.35023 0.10442,0.20884 -0.1651,0.53537 0,0.70048 0.0825,0.0825 0.26769,-0.0826 0.35024,0 0.0843,0.0843 -0.0843,1.31666 0,1.40094 0.0825,0.0825 0.26768,-0.0825 0.35023,0 0.16511,0.1651 -0.1651,0.53537 0,0.70047 0.0825,0.0826 0.26769,-0.0825 0.35024,0 0.1651,0.1651 -0.1651,0.53537 0,0.70047 0.0825,0.0825 0.26768,-0.0825 0.35024,0 0.10845,0.10845 -0.10845,1.64273 0,1.75118 0.0825,0.0826 0.26768,-0.0825 0.35023,0 0.035,0.035 0.035,1.01568 0,1.05071 -0.0825,0.0825 -0.26768,-0.0825 -0.35023,0 -0.0826,0.0825 0.0825,0.26768 0,0.35023 -0.17512,0.17512 -0.8756,-0.17511 -1.05071,0 -0.0825,0.0825 0.0825,0.26769 0,0.35024 -0.0159,0.0159 -1.58604,0 -1.75118,0 -0.81722,0 -1.63444,0 -2.45165,0 -0.11675,0 -0.26769,0.0825 -0.35024,0 -0.1651,-0.1651 0.1651,-0.53537 0,-0.70047 -0.0825,-0.0825 -0.26768,0.0825 -0.35023,0 -0.16511,-0.16511 0.1651,-0.53537 0,-0.70047 -0.0826,-0.0825 -0.26769,0.0825 -0.35024,0 -0.1651,-0.16511 0.1651,-0.53537 0,-0.70047 -0.93396,0 0.11674,0.11674 -0.35024,-0.35024 -0.0825,-0.0825 -0.26768,0.0825 -0.35023,0 -0.1651,-0.1651 0.10442,-0.49163 0,-0.70047 -0.0738,-0.14767 -0.2764,-0.20257 -0.35024,-0.35024 -0.095,-0.19 0.0958,-1.30511 0,-1.40094 -0.0825,-0.0825 -0.26768,0.0825 -0.35023,0 -0.0826,-0.0825 0,-0.23349 0,-0.35024 0,-0.11674 0,-0.23349 0,-0.35023 0,-0.11675 0,-0.2335 0,-0.35024 0,-0.11674 0.0825,-0.26768 0,-0.35023 -0.0826,-0.0826 -0.26769,0.0825 -0.35024,0 -0.17512,-0.17512 0.17512,-0.8756 0,-1.05071 -0.0825,-0.0825 -0.26768,0.0825 -0.35024,0 -0.1651,-0.1651 0.16511,-0.53537 0,-0.70047 -0.0825,-0.0826 -0.26768,0.0825 -0.35023,0 -0.0825,-0.0826 0.0522,-0.24582 0,-0.35024 -0.0738,-0.14767 -0.2764,-0.20256 -0.35024,-0.35024 -0.0522,-0.10441 0.0826,-0.26768 0,-0.35023 -0.0825,-0.0826 -0.26768,0.0825 -0.35023,0 -0.1651,-0.1651 0.1651,-0.53537 0,-0.70047 -0.46698,-0.46698 -0.35024,0.58372 -0.35024,-0.35024 0,-0.93396 0.11675,0.11675 -0.35024,-0.35024 -0.0825,-0.0825 0.0522,-0.24581 0,-0.35023 -0.0738,-0.14767 -0.27639,-0.20257 -0.35023,-0.35024 -0.0522,-0.10442 0.0825,-0.26768 0,-0.35023 -0.0826,-0.0826 -0.26768,0.0825 -0.35024,0 -0.1651,-0.1651 0.16511,-0.53537 0,-0.70048 -0.0141,-0.0141 -1.27232,0 -1.40094,0 -0.11674,0 -0.23349,0 -0.35024,0 -0.11674,0 -0.26768,-0.0826 -0.35023,0 -0.1651,0.16511 0.1651,0.53538 0,0.70048 -0.0826,0.0825 -0.26769,-0.0826 -0.35024,0 -0.0843,0.0843 0.0843,1.31666 0,1.40094 -0.0826,0.0825 -0.26768,-0.0825 -0.35023,0 -0.0825,0.0825 0,0.23349 0,0.35024 0,0.11674 0,0.23349 0,0.35023 0,1.63444 0,3.26887 0,4.9033 0,0.58373 0,1.16746 0,1.75118 0,0.11675 0.0825,0.26769 0,0.35024 -0.0825,0.0825 -0.23349,0 -0.35024,0 0,0.11675 0.0825,0.26768 0,0.35024 -0.1651,0.1651 -0.53537,-0.16511 -0.70047,0 -0.0825,0.0825 0.0825,0.26768 0,0.35023 -0.1651,0.1651 -0.53537,-0.1651 -0.70047,0 -0.0826,0.0826 0.0825,0.26769 0,0.35024 -0.17512,0.17511 -0.87559,-0.17512 -1.05071,0 -0.0825,0.0825 0.0825,0.26768 0,0.35023 -0.0825,0.0825 -0.23349,0 -0.35024,0 -0.11674,0 -0.23348,0 -0.35023,0 -0.93396,0 -1.86793,0 -2.80189,0 -0.58373,0 -1.16745,0 -1.75118,0 -0.11674,0 -0.26768,0.0825 -0.35023,0 -0.0826,-0.0825 0,-0.23349 0,-0.35023 0,-0.11675 0,-0.23349 0,-0.35024 0,-1.2842 0,-2.5684 0,-3.85259 0,-0.0849 -0.0113,-1.03945 0,-1.05071 0.0825,-0.0825 0.26768,0.0826 0.35023,0 0.0826,-0.0825 -0.0825,-0.26769 0,-0.35024 0.0826,-0.0825 0.26769,0.0825 0.35024,0 0.0826,-0.0825 -0.0825,-0.26768 0,-0.35023 0.1651,-0.1651 0.53537,0.1651 0.70047,0 0.0825,-0.0825 -0.0825,-0.26769 0,-0.35024 0.1651,-0.1651 0.53537,0.1651 0.70047,0 0.16511,-0.1651 -0.1651,-0.53537 0,-0.70047 0.16511,-0.1651 0.53537,0.1651 0.70047,0 0.0825,-0.0825 -0.0825,-0.26768 0,-0.35024 0.0825,-0.0825 0.23349,0 0.35024,0 0,-0.11674 -0.0825,-0.26768 0,-0.35023 0.0826,-0.0826 0.26768,0.0825 0.35024,0 0.1651,-0.1651 -0.16511,-0.53537 0,-0.70047 0.0826,-0.0826 0.26768,0.0825 0.35023,0 0.16511,-0.16511 -0.1651,-0.53537 0,-0.70048 0.0825,-0.0825 0.26769,0.0826 0.35024,0 0.10845,-0.10844 -0.10845,-1.64273 0,-1.75118 0.0825,-0.0826 0.26768,0.0826 0.35023,0 0.0825,-0.0826 0,-0.23348 0,-0.35023 0,-0.58373 0,-1.16745 0,-1.75118 0,-0.11674 -0.0825,-0.26768 0,-0.35024 0.0825,-0.0826 0.26769,0.0826 0.35024,0 0.0825,-0.0826 0,-0.23349 0,-0.35023 0,-0.93396 0,-1.86793 0,-2.80189 0,-0.0849 -0.0113,-1.03944 0,-1.05071 0.0825,-0.0825 0.26768,0.0825 0.35023,0 0.0825,-0.0825 0,-0.23349 0,-0.35023 0,-0.12862 0.0141,-1.38685 0,-1.40094 -0.0825,-0.0826 -0.23348,0 -0.35023,0 -0.58373,0 -1.16745,0 -1.75118,0 -0.11675,0 -0.26769,0.0825 -0.35024,0 -0.0825,-0.0826 0.0825,-0.26769 0,-0.35024 -0.17512,-0.17512 -0.87559,0.17512 -1.0507,0 -0.0826,-0.0825 0.0825,-0.26769 0,-0.35024 -0.0843,-0.0843 -1.31667,0.0843 -1.40095,0 -0.0825,-0.0825 0.0826,-0.26768 0,-0.35023 -0.0716,-0.0716 -0.91184,0.0694 -1.0507,0 -0.14768,-0.0738 -0.20257,-0.2764 -0.35024,-0.35024 -0.13887,-0.0694 -0.97911,0.0716 -1.05071,0 -0.0825,-0.0825 0.0826,-0.26768 0,-0.35023 -0.0825,-0.0826 -0.26768,0.0825 -0.35023,0 -0.0826,-0.0826 0.0825,-0.26769 0,-0.35024 -0.16511,-0.1651 -0.535369,0.1651 -0.700479,0 -0.0825,-0.0825 0,-0.23349 0,-0.35023 -0.11674,0 -0.26768,0.0825 -0.35023,0 -0.1651,-0.16511 0.1651,-0.53538 0,-0.70048 -0.0825,-0.0825 -0.26769,0.0825 -0.35024,0 -0.1651,-0.1651 0.1651,-0.53537 0,-0.70047 -0.0825,-0.0825 -0.26768,0.0825 -0.35023,0 -0.1651,-0.1651 0.1651,-0.53537 0,-0.70047 -0.0826,-0.0825 -0.26769,0.0826 -0.35024,0 -0.1651,-0.1651 0.1651,-0.53537 0,-0.70047 -0.0825,-0.0825 -0.26768,0.0825 -0.35024,0 -0.1651,-0.1651 0.16511,-0.53537 0,-0.70047 -0.0825,-0.0826 -0.26768,0.0825 -0.35023,0 -0.1651,-0.16511 0.1651,-0.53537 0,-0.70048 -0.0825,-0.0825 -0.26768,0.0826 -0.35024,0 -0.0825,-0.0825 0.0826,-0.26768 0,-0.35023 -0.0825,-0.0826 -0.26768,0.0825 -0.35023,0 -0.0825,-0.0826 0.0825,-0.26769 0,-0.35024 -0.0825,-0.0825 -0.26769,0.0825 -0.35024,0 -0.1651,-0.1651 0.10442,-0.49163 0,-0.70047 -0.0738,-0.14767 -0.276398,-0.20256 -0.350235,-0.35024 -0.10442,-0.20883 0.165103,-0.53536 0,-0.70047 -0.08255,-0.0825 -0.267684,0.0826 -0.350234,0 -0.165103,-0.1651 0.165102,-0.53537 0,-0.70047 -0.08255,-0.0825 -0.267684,0.0825 -0.350237,0 -0.08255,-0.0825 0,-0.23349 0,-0.35024 0,-0.11674 -0.05221,-0.24581 0,-0.35023 0.07384,-0.14767 0.202565,-0.2764 0.350237,-0.35024 0.10442,-0.0522 0.267684,0.0826 0.350234,0 0.08255,-0.0825 -0.08255,-0.26768 0,-0.35023 0.08255,-0.0825 0.233495,0 0.350235,0 0.0849,0 1.03945,-0.0113 1.05071,0 0.0825,0.0825 -0.0825,0.26768 0,0.35023 0.0843,0.0843 1.31666,-0.0843 1.40094,0 0.0825,0.0826 -0.0825,0.26769 0,0.35024 0.17512,0.17512 0.87559,-0.17512 1.050709,0 0.0825,0.0825 -0.0825,0.26768 0,0.35023 0.1651,0.16511 0.53537,-0.1651 0.70047,0 0.0826,0.0826 -0.0825,0.26769 0,0.35024 0.1651,0.1651 0.53537,-0.1651 0.70047,0 0.0826,0.0825 -0.0825,0.26769 0,0.35024 0.23411,0.2341 0.46637,-0.2341 0.70048,0 0.0825,0.0825 -0.0826,0.26768 0,0.35023 0.0825,0.0826 0.24581,-0.0522 0.35023,0 1.4576,0.7288 -0.37441,-0.0242 0.35024,0.70047 0.0825,0.0826 0.26768,-0.0825 0.35023,0 0.0826,0.0826 -0.0825,0.26769 0,0.35024 0.1651,0.1651 0.53537,-0.1651 0.70048,0 0.0826,0.0825 -0.0826,0.26769 0,0.35024 0.0113,0.0113 0.96576,0 1.0507,0 0.16514,0 1.73531,0.0159 1.75118,0 0.0825,-0.0825 -0.0826,-0.26769 0,-0.35024 0.16511,-0.1651 0.53537,0.1651 0.70047,0 0.0825,-0.0825 -0.0825,-0.26768 0,-0.35024 0.0825,-0.0825 0.24582,0.0522 0.35024,0 0.14767,-0.0738 0.20256,-0.2764 0.35023,-0.35023 0.10443,-0.0522 0.26769,0.0825 0.35024,0 0.0825,-0.0825 -0.0825,-0.26768 0,-0.35024 0.0825,-0.0825 0.26769,0.0826 0.35024,0 0.0826,-0.0825 -0.0825,-0.26768 0,-0.35023 0.0826,-0.0826 0.26768,0.0825 0.35023,0 0.16511,-0.16511 -0.1651,-0.53537 0,-0.70048 0.46698,-0.46697 0.35024,0.58373 0.35024,-0.35023"
       id="path2217"
       inkscape:connector-curvature="0" />
    <path
       style="fill:none;stroke:#000000;stroke-width:0.26458332px;stroke-linecap:butt;stroke-linejoin:miter;stroke-opacity:1"
       d="m 110.32429,109.27355 0.70047,1.05071"
       id="path2223"
       inkscape:connector-curvature="0" />
    <path
       style="fill:none;stroke:#000000;stroke-width:0.26458332px;stroke-linecap:butt;stroke-linejoin:miter;stroke-opacity:1"
       d="m 114.29588,109.97951 c 0,0.0516 0,0.10319 0,0.15478 0,0.005 0.001,0.0359 0,0.0387 -0.002,0.003 -0.007,0.004 -0.008,0.008 -0.001,0.004 0,0.0386 0,0.0464 0,0.005 -0.001,0.0359 0,0.0387 0.002,0.003 0.006,0.004 0.008,0.008 0.002,0.005 -0.002,0.0179 0,0.0232 0.002,0.005 0.006,0.01 0.008,0.0155 7.9e-4,0.002 0,0.005 0,0.008 0.003,0.005 0.006,0.01 0.008,0.0155 0.002,0.007 -0.002,0.0162 0,0.0232 0.002,0.005 0.006,0.01 0.008,0.0155 0.002,0.005 -0.002,0.0109 0,0.0155 0.002,0.003 0.006,0.004 0.008,0.008 0.002,0.005 -0.002,0.0109 0,0.0155 0.002,0.003 0.006,0.004 0.008,0.008 0.002,0.003 -0.002,0.0216 0,0.0232 0.002,0.002 0.006,-0.002 0.008,0 0.004,0.004 -0.002,0.0109 0,0.0155 0.002,0.003 0.006,0.004 0.008,0.008 0.002,0.005 -0.004,0.0118 0,0.0155 0.002,0.002 0.006,-0.002 0.008,0 0.004,0.004 -0.004,0.0193 0,0.0232 0.002,0.002 0.006,-0.002 0.008,0 2.7e-4,2.7e-4 0,0.035 0,0.0387 0,0.0748 0,0.14962 0,0.22444"
       id="path2225"
       inkscape:connector-curvature="0" />
    <path
       style="fill:none;stroke:#000000;stroke-width:0.26458332px;stroke-linecap:butt;stroke-linejoin:miter;stroke-opacity:1"
       d="m 111.24664,112.57988 c 0.0142,0.0109 -0.004,0.0263 0,0.0387 0.004,0.0157 0.009,0.0314 0.0155,0.0464 0.001,0.003 0.005,0.005 0.008,0.008 0.003,0.005 0.006,0.01 0.008,0.0155 0.002,0.005 -0.002,0.0109 0,0.0155 0.002,0.003 0.006,0.004 0.008,0.008 10e-4,0.002 -0.001,0.005 0,0.008 0.002,0.003 0.006,0.004 0.008,0.008 0.001,0.002 -0.001,0.005 0,0.008 0.002,0.003 0.006,0.004 0.008,0.008 0.001,0.002 0,0.005 0,0.008 0.003,0.003 0.006,0.004 0.008,0.008 0.002,0.005 -0.004,0.0118 0,0.0155 0.002,0.002 0.006,-0.002 0.008,0 0.002,0.002 -0.001,0.005 0,0.008 0.002,0.003 0.006,0.004 0.008,0.008 0.001,0.002 -10e-4,0.005 0,0.008 0.002,0.003 0.006,0.004 0.008,0.008 10e-4,0.002 -0.002,0.006 0,0.008 0.002,0.002 0.006,-0.002 0.008,0 0.002,0.002 -0.001,0.005 0,0.008 0.002,0.003 0.006,0.004 0.008,0.008 0.01,0.019 -0.0225,-0.007 0.008,0.0232 0.002,0.002 0.006,-0.002 0.008,0 0.002,0.002 -0.001,0.005 0,0.008 0.002,0.003 0.006,0.004 0.008,0.008 0.001,0.002 -0.002,0.006 0,0.008 0.002,0.002 0.006,-0.002 0.008,0 0.002,0.002 -0.001,0.005 0,0.008 0.002,0.003 0.006,0.004 0.008,0.008 10e-4,0.002 -0.001,0.005 0,0.008 0.002,0.003 0.006,0.004 0.008,0.008 0.001,0.002 -0.001,0.005 0,0.008 0.002,0.003 0.006,0.005 0.008,0.008 0.003,0.005 0.005,0.0107 0.008,0.0155 0.004,0.006 0.0122,0.009 0.0155,0.0155 10e-4,0.002 -0.002,0.006 0,0.008 0.002,0.002 0.006,-0.002 0.008,0 0.004,0.004 -0.004,0.0118 0,0.0155 0.002,0.002 0.006,-0.002 0.008,0 0.002,0.002 -10e-4,0.005 0,0.008 0.003,0.007 0.0122,0.009 0.0155,0.0155 0.001,0.002 -0.002,0.006 0,0.008 0.002,0.002 0.006,-0.002 0.008,0 0.002,0.002 -10e-4,0.005 0,0.008 0.003,0.007 0.0122,0.009 0.0155,0.0155 0.001,0.002 -0.001,0.005 0,0.008 0.003,0.007 0.0122,0.009 0.0155,0.0155 0.001,0.002 -0.002,0.006 0,0.008 0.002,0.002 0.006,-0.002 0.008,0 0.002,0.002 -10e-4,0.005 0,0.008 0.002,0.003 0.006,0.005 0.008,0.008 0.003,0.005 0.004,0.0109 0.008,0.0155 0.0335,0.0335 10e-4,-0.002 0.0232,0.031 0.004,0.007 0.0172,0.0172 0.0232,0.0232 0.003,0.003 0.006,0.004 0.008,0.008 10e-4,0.002 -0.001,0.005 0,0.008 0.0161,0.0322 -5.3e-4,-0.008 0.0155,0.008 0.002,0.002 -0.002,0.006 0,0.008 0.002,0.002 0.006,-0.002 0.008,0 0.004,0.004 -0.004,0.0118 0,0.0155 0.002,0.002 0.005,-0.001 0.008,0 0.002,0.001 0.0222,0.0212 0.0232,0.0232 0.001,0.002 -0.002,0.006 0,0.008 0.002,0.002 0.006,-10e-4 0.008,0 0.0153,0.0102 0.0311,0.0362 0.0464,0.0464 0.002,0.001 0.006,-0.002 0.008,0 0.002,0.002 -10e-4,0.005 0,0.008 7.9e-4,0.002 0.0295,0.0302 0.031,0.031 0.002,10e-4 0.006,-0.002 0.008,0 0.002,0.002 -0.002,0.006 0,0.008 0.002,0.002 0.006,-0.002 0.008,0 0.002,0.002 -0.002,0.006 0,0.008 0.002,0.002 0.006,-0.002 0.008,0 0.002,0.002 -0.002,0.006 0,0.008 0.002,0.002 0.005,-0.001 0.008,0 0.003,0.002 0.004,0.006 0.008,0.008 0.002,0.001 0.006,-0.002 0.008,0 0.002,0.002 -0.002,0.006 0,0.008 0.002,0.002 0.006,-0.002 0.008,0 0.002,0.002 -0.002,0.006 0,0.008 0.002,0.002 0.005,-0.001 0.008,0 0.007,0.003 0.009,0.0122 0.0155,0.0155 0.002,0.001 0.005,-10e-4 0.008,0 0.007,0.003 0.009,0.0122 0.0155,0.0155 0.002,0.001 0.006,-0.002 0.008,0 0.016,0.016 -0.0245,-5.3e-4 0.008,0.0155 0.0191,0.01 -0.007,-0.0225 0.0232,0.008 0.002,0.002 -0.002,0.006 0,0.008 0.002,0.002 0.005,-0.001 0.008,0 0.003,0.002 0.004,0.006 0.008,0.008 0.002,0.001 0.006,-0.002 0.008,0 0.002,0.002 -0.002,0.006 0,0.008 0.002,0.002 0.005,-10e-4 0.008,0 0.0257,0.0257 -0.007,-0.004 0.0155,0.008 0.007,0.003 0.009,0.0122 0.0155,0.0155 0.002,0.001 0.005,-10e-4 0.008,0 0.007,0.003 0.009,0.0122 0.0155,0.0155 0.002,0.001 0.005,-0.001 0.008,0 0.003,0.002 0.004,0.006 0.008,0.008 0.002,0.001 0.005,-10e-4 0.008,0 0.003,0.002 0.005,0.006 0.008,0.008 0.01,0.006 0.0213,0.009 0.031,0.0155 0.003,0.002 0.004,0.007 0.008,0.008 0.005,0.002 0.0106,-0.002 0.0155,0 0.003,0.001 0.004,0.006 0.008,0.008 0.002,0.001 0.005,-10e-4 0.008,0 0.0257,0.0257 -0.007,-0.004 0.0155,0.008 0.007,0.003 0.009,0.0122 0.0155,0.0155 0.005,0.002 0.0109,-0.002 0.0155,0 0.003,0.002 0.004,0.006 0.008,0.008 0.002,10e-4 0.005,-0.001 0.008,0 0.003,0.002 0.004,0.006 0.008,0.008 0.002,0.001 0.005,-0.001 0.008,0 0.003,0.002 0.004,0.007 0.008,0.008 0.005,0.002 0.0106,-0.002 0.0155,0 0.003,0.001 0.004,0.006 0.008,0.008 0.0146,0.007 0.0313,0.009 0.0464,0.0155 0.005,0.002 0.0107,0.005 0.0155,0.008 0.003,0.002 0.004,0.007 0.008,0.008 0.005,0.002 0.0109,-0.002 0.0155,0 0.002,0.001 -0.002,0.006 0,0.008 0.004,0.004 0.0109,-0.002 0.0155,0 0.003,0.002 0.004,0.006 0.008,0.008 0.002,10e-4 0.005,-0.001 0.008,0 0.003,0.002 0.004,0.006 0.008,0.008 0.002,0.001 0.005,-8e-4 0.008,0 0.005,0.002 0.01,0.006 0.0155,0.008 0.002,7.9e-4 0.005,-10e-4 0.008,0 0.003,0.002 0.004,0.006 0.008,0.008 0.002,10e-4 0.005,-0.001 0.008,0 0.003,0.002 0.004,0.006 0.008,0.008 0.002,0.001 0.005,-0.001 0.008,0 0.003,0.002 0.004,0.006 0.008,0.008 0.002,0.001 0.006,-0.002 0.008,0 0.002,0.002 -0.002,0.006 0,0.008 0.004,0.004 0.0106,-0.002 0.0155,0 0.011,0.004 0.02,0.0118 0.031,0.0155 0.002,8e-4 0.006,-0.002 0.008,0 0.002,0.002 -0.002,0.006 0,0.008 0.002,0.002 0.005,-7.9e-4 0.008,0 0.005,0.002 0.0107,0.005 0.0155,0.008 0.0257,0.0257 -0.007,-0.004 0.0155,0.008 0.003,0.002 0.004,0.006 0.008,0.008 0.002,10e-4 0.005,-0.001 0.008,0 0.003,0.002 0.005,0.006 0.008,0.008 0.005,0.003 0.01,0.006 0.0155,0.008 0.002,7.9e-4 0.006,-0.002 0.008,0 0.002,0.002 -0.002,0.006 0,0.008 0.002,0.002 0.005,-10e-4 0.008,0 0.003,0.002 0.004,0.006 0.008,0.008 0.005,0.002 0.0118,-0.004 0.0155,0 0.002,0.002 -0.002,0.006 0,0.008 0.002,0.002 0.005,-0.001 0.008,0 0.003,0.002 0.004,0.006 0.008,0.008 0.002,0.001 0.005,0 0.008,0 0.005,0.003 0.0107,0.005 0.0155,0.008 0.006,0.004 0.009,0.0122 0.0155,0.0155 0.002,0.001 0.005,0 0.008,0 0.003,0.003 0.004,0.006 0.008,0.008 0.005,0.002 0.0118,-0.004 0.0155,0 0.002,0.002 -0.002,0.006 0,0.008 0.002,0.002 0.005,-0.001 0.008,0 0.003,0.002 0.004,0.006 0.008,0.008 0.002,0.001 0.005,-10e-4 0.008,0 0.003,0.002 0.004,0.006 0.008,0.008 0.002,10e-4 0.006,-0.002 0.008,0 0.002,0.002 -0.002,0.006 0,0.008 0.004,0.004 0.0109,-0.002 0.0155,0 0.007,0.003 0.009,0.0122 0.0155,0.0155 0.002,10e-4 0.005,-0.001 0.008,0 0.003,0.002 0.005,0.006 0.008,0.008 0.005,0.003 0.0114,0.004 0.0155,0.008 0.002,0.002 -0.002,0.006 0,0.008 0.002,0.002 0.005,-0.001 0.008,0 0.003,0.002 0.004,0.006 0.008,0.008 0.002,0.001 0.006,-0.002 0.008,0 0.002,0.002 -0.002,0.006 0,0.008 0.004,0.004 0.0109,-0.002 0.0155,0 0.003,0.002 0.004,0.006 0.008,0.008 0.002,10e-4 0.006,-0.002 0.008,0 0.002,0.002 -0.002,0.006 0,0.008 0.002,0.002 0.005,-0.001 0.008,0 0.003,0.002 0.004,0.006 0.008,0.008 0.005,0.002 0.0118,-0.004 0.0155,0 0.002,0.002 -0.002,0.006 0,0.008 0.002,0.002 0.005,-0.001 0.008,0 0.0257,0.0257 -0.007,-0.004 0.0155,0.008 0.003,0.002 0.004,0.006 0.008,0.008 0.002,0.001 0.005,-7.9e-4 0.008,0 0.005,0.002 0.01,0.006 0.0155,0.008 0.002,8e-4 0.005,-0.001 0.008,0 0.003,0.002 0.004,0.006 0.008,0.008 0.002,0.001 0.006,-0.002 0.008,0 0.002,0.002 -0.002,0.006 0,0.008 0.004,0.004 0.0109,-0.002 0.0155,0 0.003,0.002 0.004,0.006 0.008,0.008 0.002,10e-4 0.005,-8e-4 0.008,0 0.005,0.002 0.01,0.006 0.0155,0.008 0.002,7.9e-4 0.005,-0.001 0.008,0 0.003,0.002 0.004,0.006 0.008,0.008 0.002,0.001 0.005,-7.9e-4 0.008,0 0.005,0.002 0.01,0.006 0.0155,0.008 0.002,7.9e-4 0.005,-10e-4 0.008,0 0.003,0.002 0.004,0.006 0.008,0.008 0.005,0.002 0.0106,-0.002 0.0155,0 0.005,0.002 0.01,0.006 0.0155,0.008 0.002,7.9e-4 0.005,-0.001 0.008,0 0.003,0.002 0.004,0.006 0.008,0.008 0.005,0.002 0.0109,-0.002 0.0155,0 0.003,0.002 0.004,0.006 0.008,0.008 0.002,10e-4 0.005,0 0.008,0 0.005,0 0.0106,-0.002 0.0155,0 0.003,10e-4 0.004,0.006 0.008,0.008 0.002,0.001 0.005,-5.3e-4 0.008,0 0.0158,0.004 0.0306,0.0115 0.0464,0.0155 0.002,5.3e-4 0.005,-5.3e-4 0.008,0 0.008,0.002 0.0153,0.006 0.0232,0.008 0.005,0.001 0.0109,-0.002 0.0155,0 0.003,0.002 0.004,0.006 0.008,0.008 0.005,0.002 0.0109,-0.002 0.0155,0 0.003,0.002 0.004,0.007 0.008,0.008 0.005,0.002 0.0103,0 0.0155,0 0.003,0 0.005,-0.001 0.008,0 0.003,0.002 0.004,0.006 0.008,0.008 0.005,0.002 0.0109,-0.002 0.0155,0 0.003,0.002 0.004,0.007 0.008,0.008 0.004,0.001 0.0275,-0.002 0.031,0 0.003,0.002 0.004,0.007 0.008,0.008 0.005,0.002 0.0104,-0.001 0.0155,0 0.008,0.002 0.0152,0.006 0.0232,0.008 0.005,0.001 0.0106,-0.002 0.0155,0 0.003,0.001 0.004,0.006 0.008,0.008 0.005,0.002 0.0106,-0.002 0.0155,0 0.005,0.002 0.01,0.006 0.0155,0.008 0.007,0.002 0.0341,-0.002 0.0387,0 0.003,0.002 0.004,0.007 0.008,0.008 0.01,0.003 0.0276,-0.002 0.0387,0 0.0104,0.002 0.0205,0.006 0.031,0.008 0.008,0.002 0.0155,0 0.0232,0 0.0129,0 0.0258,0 0.0387,0 0.0413,0 0.0825,0 0.12383,0 0.0361,0 0.0722,0 0.10835,0 0.001,0 0.0436,0.001 0.0464,0 0.0287,-0.01 -0.009,-0.008 0.0155,-0.008 0.0232,0 0.0464,0 0.0696,0 0.01,0 0.0215,0.001 0.031,0 0.013,-0.002 0.0257,-0.006 0.0387,-0.008 0.008,-0.001 0.0155,0.003 0.0232,0 0.003,-0.001 0.004,-0.007 0.008,-0.008 0.008,-0.003 0.0227,0.003 0.031,0 0.005,-0.002 0.01,-0.006 0.0155,-0.008 0.005,-0.002 0.0106,0.002 0.0155,0 0.005,-0.002 0.01,-0.006 0.0155,-0.008 0.005,-0.001 0.0104,8e-4 0.0155,0 0.0105,-0.002 0.0205,-0.006 0.0309,-0.008 0.008,-0.002 0.0243,0.002 0.031,0 0.005,-0.002 0.01,-0.006 0.0155,-0.008 0.008,-0.002 0.0159,0.002 0.0232,0 0.005,-0.002 0.01,-0.006 0.0155,-0.008 0.002,-7.9e-4 0.005,0 0.008,0 0.005,-0.003 0.01,-0.006 0.0155,-0.008 0.007,-0.002 0.0157,0.002 0.0232,0 0.0158,-0.004 0.0306,-0.0115 0.0464,-0.0155 0.005,-0.001 0.0106,0.002 0.0155,0 0.003,-0.001 0.004,-0.007 0.008,-0.008 0.005,-0.002 0.0105,0.001 0.0155,0 0.006,-10e-4 0.01,-0.006 0.0155,-0.008 0.002,-7.9e-4 0.005,8e-4 0.008,0 0.005,-0.002 0.01,-0.006 0.0155,-0.008 0.002,-8e-4 0.005,7.9e-4 0.008,0 0.005,-0.002 0.01,-0.006 0.0155,-0.008 0.002,-7.9e-4 0.005,0 0.008,0 0.0103,-0.003 0.021,-0.004 0.031,-0.008 0.0108,-0.004 0.02,-0.0118 0.031,-0.0155 0.005,-0.002 0.0105,0.001 0.0155,0 0.014,0.005 0.0144,-0.0125 0.0232,-0.0155 0.005,-0.002 0.0105,0.001 0.0155,0 0.006,-10e-4 0.01,-0.006 0.0155,-0.008 0.002,-7.9e-4 0.005,8e-4 0.008,0 0.005,-0.002 0.0107,-0.005 0.0155,-0.008 0.003,-0.002 0.004,-0.007 0.008,-0.008 0.005,-0.002 0.0105,10e-4 0.0155,0 0.0267,-0.007 0.006,-0.005 0.0232,-0.0155 0.01,-0.006 0.0206,-0.0103 0.031,-0.0155 0.005,-0.003 0.01,-0.006 0.0155,-0.008 0.005,-0.001 0.0106,0.002 0.0155,0 0.007,-0.002 0.009,-0.0114 0.0155,-0.0155 0.0178,-0.0119 0.0209,-0.004 0.0387,-0.0155 0.0327,-0.0218 -0.0421,0.0133 0.031,-0.0232 0.002,-10e-4 0.005,0.001 0.008,0 0.003,-0.002 0.005,-0.005 0.008,-0.008 0.0101,-0.008 0.0209,-0.0152 0.031,-0.0232 0.006,-0.005 0.009,-0.0122 0.0155,-0.0155 0.002,-10e-4 0.005,0 0.008,0 0.005,-0.005 0.009,-0.0114 0.0155,-0.0155 0.002,-0.001 0.005,10e-4 0.008,0 0.003,-0.002 0.005,-0.005 0.008,-0.008 0.006,-0.006 0.0165,-0.0188 0.0232,-0.0232 0.007,-0.005 0.0188,-0.007 0.0232,-0.0155 0.001,-0.002 -0.002,-0.006 0,-0.008 0.004,-0.004 0.0107,-0.005 0.0155,-0.008 0.007,-0.005 0.038,-0.038 0.0387,-0.0387 0.008,-0.008 0.0223,-0.0252 0.031,-0.031 0.002,-0.001 0.005,0.001 0.008,0 0.004,-0.002 0.0191,-0.0192 0.0232,-0.0232 0.008,-0.008 0.0171,-0.0141 0.0232,-0.0232 0.008,-0.012 -0.0131,-0.005 0.008,-0.0155 0.002,-10e-4 0.005,0.001 0.008,0 0.003,-0.002 0.005,-0.005 0.008,-0.008 0.003,-0.003 0.007,-0.004 0.008,-0.008 0.002,-0.005 -0.002,-0.0109 0,-0.0155 10e-4,-0.002 0.005,0.001 0.008,0 0.003,-0.002 0.005,-0.005 0.008,-0.008 0.003,-0.003 0.006,-0.005 0.008,-0.008 0.005,-0.008 0.0103,-0.0155 0.0155,-0.0232 0,-0.003 -10e-4,-0.005 0,-0.008 0.002,-0.003 0.005,-0.005 0.008,-0.008 0.009,-0.009 0.0108,-0.009 0.0155,-0.0232 7.9e-4,-0.002 -10e-4,-0.005 0,-0.008 0.003,-0.007 0.0122,-0.009 0.0155,-0.0155 0.001,-0.002 -0.001,-0.005 0,-0.008 0.002,-0.003 0.006,-0.004 0.008,-0.008 0.002,-0.005 -0.002,-0.0106 0,-0.0155 0.002,-0.005 0.006,-0.0101 0.008,-0.0155 0.003,-0.008 0.004,-0.0159 0.008,-0.0232 0.002,-0.003 0.006,-0.004 0.008,-0.008 0.002,-0.005 -0.002,-0.0106 0,-0.0155 0.002,-0.005 0.006,-0.01 0.008,-0.0155 7.9e-4,-0.002 -7.9e-4,-0.005 0,-0.008 0.002,-0.005 0.006,-0.01 0.008,-0.0155 0.002,-0.005 -0.002,-0.0186 0,-0.0232 0.002,-0.003 0.007,-0.004 0.008,-0.008 0.002,-0.005 0,-0.0103 0,-0.0155 0,-0.003 -10e-4,-0.005 0,-0.008 0.002,-0.003 0.006,-0.004 0.008,-0.008 0.002,-0.004 -0.002,-0.0321 0,-0.0387 10e-4,-0.006 0.006,-0.01 0.008,-0.0155 0.002,-0.006 0,-0.0455 0,-0.0542 0,-0.007 -0.001,-0.0268 0,-0.0309 0.001,-0.003 0.006,-0.004 0.008,-0.008 0.001,-0.002 0,-0.005 0,-0.008 0,-0.0129 0,-0.0258 0,-0.0387 0,-0.005 -10e-4,-0.0105 0,-0.0155 0.001,-0.006 0.006,-0.01 0.008,-0.0155 0.002,-0.005 0,-0.0103 0,-0.0155 0,-0.0155 0,-0.031 0,-0.0464 0,-0.005 -0.002,-0.0106 0,-0.0155 0.002,-0.005 0.006,-0.01 0.008,-0.0155 0.001,-0.004 0,-0.0283 0,-0.031 0,-0.0258 0,-0.0516 0,-0.0774 0,-0.0206 0,-0.0413 0,-0.0619 0,-0.009 0.002,-0.0223 0,-0.031 -0.002,-0.0104 -0.006,-0.0205 -0.008,-0.031 -7.9e-4,-0.005 0.002,-0.0257 0,-0.031 -0.002,-0.005 -0.006,-0.01 -0.008,-0.0155 -0.002,-0.004 0,-0.0243 0,-0.031 0,-0.006 0.001,-0.0425 0,-0.0464 -10e-4,-0.003 -0.007,-0.004 -0.008,-0.008 -0.002,-0.009 0,-0.0276 0,-0.0387 0,-0.003 7.9e-4,-0.005 0,-0.008 -0.002,-0.005 -0.006,-0.01 -0.008,-0.0155 -0.002,-0.006 0.003,-0.0258 0,-0.031 -0.002,-0.003 -0.007,-0.004 -0.008,-0.008 -0.002,-0.005 0,-0.0103 0,-0.0155 0,-0.003 0.001,-0.005 0,-0.008 -0.002,-0.003 -0.006,-0.004 -0.008,-0.008 -0.002,-0.004 0.001,-0.0491 0,-0.0542 -8e-4,-0.004 -0.006,-0.004 -0.008,-0.008 -0.002,-0.005 0.002,-0.0338 0,-0.0387 -0.002,-0.003 -0.006,-0.004 -0.008,-0.008 -10e-4,-0.002 8e-4,-0.005 0,-0.008 -0.002,-0.005 -0.006,-0.01 -0.008,-0.0155 -0.002,-0.007 0.002,-0.0162 0,-0.0232 -0.002,-0.005 -0.006,-0.01 -0.008,-0.0155 -0.002,-0.005 0,-0.0372 0,-0.0464 0,-0.003 0,-0.005 0,-0.008 0,-0.003 10e-4,-0.005 0,-0.008 -0.002,-0.003 -0.006,-0.004 -0.008,-0.008 -10e-4,-0.002 0,-0.0197 0,-0.0232"
       id="path2227"
       inkscape:connector-curvature="0" />
    <path
       style="fill:none;stroke:#000000;stroke-width:0.26458332px;stroke-linecap:butt;stroke-linejoin:miter;stroke-opacity:1"
       d="m 112.73216,111.41875 c 0.18817,0.0941 0.10986,0.0876 0.2189,0.0876 0.0146,0 0.0335,-0.0103 0.0438,0 0.0103,0.0103 -0.0103,0.0335 0,0.0438 0.0206,0.0206 0.0669,-0.0206 0.0876,0 0.0103,0.0103 -0.0103,0.0335 0,0.0438 0.0206,0.0206 0.0614,-0.013 0.0876,0 0.0185,0.009 0.0253,0.0346 0.0438,0.0438 0.013,0.007 0.0307,-0.007 0.0438,0 0.0185,0.009 0.0253,0.0346 0.0438,0.0438 0.013,0.007 0.0307,-0.007 0.0438,0 0.0185,0.009 0.0253,0.0345 0.0438,0.0438 0.013,0.007 0.0307,-0.007 0.0438,0 0.0185,0.009 0.0253,0.0345 0.0438,0.0438 0.0261,0.013 0.0669,-0.0206 0.0876,0 0.0103,0.0103 -0.0103,0.0335 0,0.0438 0.0206,0.0206 0.0669,-0.0206 0.0876,0 0.0103,0.0103 -0.0103,0.0335 0,0.0438 0.0103,0.0103 0.0335,-0.0103 0.0438,0 0.0103,0.0103 -0.0103,0.0335 0,0.0438 0.0206,0.0206 0.0669,-0.0206 0.0876,0 0.0103,0.0103 -0.0103,0.0335 0,0.0438 0.0206,0.0206 0.0669,-0.0206 0.0876,0 0.0103,0.0103 -0.0103,0.0335 0,0.0438 0.0206,0.0206 0.0669,-0.0206 0.0876,0 0.0103,0.0103 -0.0103,0.0335 0,0.0438 0.0292,0.0292 0.0584,-0.0292 0.0876,0 0.0103,0.0103 -0.0103,0.0335 0,0.0438 0.0103,0.0103 0.0335,-0.0103 0.0438,0 0.0103,0.0103 -0.0103,0.0335 0,0.0438 0.0103,0.0103 0.0335,-0.0103 0.0438,0 0.0103,0.0103 -0.0103,0.0335 0,0.0438 0.0103,0.0103 0.0335,-0.0103 0.0438,0 0.0103,0.0103 -0.0103,0.0335 0,0.0438 0.0103,0.0103 0.0335,-0.0103 0.0438,0 0.0103,0.0103 -0.0103,0.0335 0,0.0438 0.0206,0.0206 0.0669,-0.0206 0.0876,0 0.0206,0.0206 -0.0206,0.0669 0,0.0876 0.0103,0.0103 0.0438,-0.0146 0.0438,0 0,0.0146 -0.0292,0 -0.0438,0 -0.0438,0 -0.0876,0 -0.13134,0 -0.0146,0 -0.0292,0 -0.0438,0 -0.0146,0 -0.0335,-0.0103 -0.0438,0 -0.0103,0.0103 0.0103,0.0335 0,0.0438 -0.0103,0.0103 -0.0307,-0.007 -0.0438,0 -0.0185,0.009 -0.0253,0.0345 -0.0438,0.0438 -0.0261,0.013 -0.0669,-0.0206 -0.0876,0 -0.0103,0.0103 0.0103,0.0335 0,0.0438 -0.0206,0.0206 -0.0615,-0.013 -0.0876,0 -0.1452,0.14519 0.0413,-0.0206 -0.0876,0.0438 -0.0185,0.009 -0.0253,0.0345 -0.0438,0.0438 -0.013,0.007 -0.0335,-0.0103 -0.0438,0 -0.0103,0.0103 0.0103,0.0334 0,0.0438 -0.0206,0.0206 -0.0669,-0.0206 -0.0876,0 -0.0103,0.0103 0.0103,0.0335 0,0.0438 -0.0103,0.0103 -0.0335,-0.0103 -0.0438,0 -0.0103,0.0103 0.0103,0.0335 0,0.0438 -0.0103,0.0103 -0.0335,-0.0103 -0.0438,0 -0.0103,0.0103 0.0103,0.0335 0,0.0438 -0.0103,0.0103 -0.0335,-0.0103 -0.0438,0 -0.0103,0.0103 0.0103,0.0335 0,0.0438 -0.0135,0.0136 -0.20534,-0.0135 -0.21889,0 -0.0584,0.0584 0.073,0.0438 -0.0438,0.0438"
       id="path2229"
       inkscape:connector-curvature="0" />
    <path
       style="fill:none;stroke:#ff0000;stroke-width:0.26458332px;stroke-linecap:butt;stroke-linejoin:miter;stroke-opacity:1"
       d="m 97.453121,118.37968 c -0.0473,0.18928 -0.0438,0.11495 -0.0438,0.2189 0,0.0146 0.0103,0.0335 0,0.0438 -0.0103,0.0103 -0.0335,-0.0103 -0.0438,0 -0.0103,0.0103 0.007,0.0307 0,0.0438 -0.14519,0.1452 0.0206,-0.0413 -0.0438,0.0876 -0.009,0.0185 -0.0346,0.0253 -0.0438,0.0438 -0.013,0.0261 0.0206,0.0669 0,0.0876 -0.0103,0.0103 -0.0335,-0.0103 -0.0438,0 -0.0103,0.0103 0.007,0.0307 0,0.0438 -0.009,0.0185 -0.0346,0.0253 -0.0438,0.0438 -0.007,0.013 0.007,0.0307 0,0.0438 -0.009,0.0185 -0.0345,0.0253 -0.0438,0.0438 -0.007,0.013 0.0103,0.0335 0,0.0438 -0.0103,0.0103 -0.0335,-0.0103 -0.0438,0 -0.0103,0.0103 0.007,0.0307 0,0.0438 -0.009,0.0185 -0.0345,0.0253 -0.0438,0.0438 -0.007,0.013 0.0103,0.0335 0,0.0438 -0.0103,0.0103 -0.0335,-0.0103 -0.0438,0 -0.0103,0.0103 0.007,0.0307 0,0.0438 -0.009,0.0185 -0.0345,0.0253 -0.0438,0.0438 -0.007,0.013 0.007,0.0307 0,0.0438 -0.0263,0.0525 -0.10507,0.0788 -0.13134,0.13134 -0.007,0.0131 0.0103,0.0335 0,0.0438 -0.0103,0.0103 -0.0335,-0.0103 -0.0438,0 -0.0206,0.0206 0.0206,0.0669 0,0.0876 -0.0103,0.0103 -0.0307,-0.007 -0.0438,0 -0.0968,0.0484 -0.0136,0.0272 -0.0438,0.0876 -0.009,0.0185 -0.0345,0.0253 -0.0438,0.0438 -0.007,0.013 0.0103,0.0335 0,0.0438 -0.0103,0.0103 -0.0335,-0.0103 -0.0438,0 -0.0206,0.0206 0.0206,0.0669 0,0.0876 -0.0584,0.0584 -0.0438,-0.073 -0.0438,0.0438 0,0.11674 0.0146,-0.0146 -0.0438,0.0438 -0.0206,0.0206 0.0206,0.0669 0,0.0876 -0.0103,0.0103 -0.04377,0.0146 -0.04377,0 0,-0.01 0.16463,0.0105 0.17511,0 0.0103,-0.0103 -0.0103,-0.0335 0,-0.0438 0.0206,-0.0206 0.0669,0.0206 0.0876,0 0.0103,-0.0103 -0.0103,-0.0335 0,-0.0438 0.0103,-0.0103 0.0307,0.007 0.0438,0 0.0185,-0.009 0.0253,-0.0345 0.0438,-0.0438 0.0261,-0.013 0.0669,0.0206 0.0876,0 0.0103,-0.0103 -0.0103,-0.0335 0,-0.0438 0.0206,-0.0206 0.0614,0.013 0.0876,0 0.0185,-0.009 0.0253,-0.0345 0.0438,-0.0438 0.013,-0.007 0.0307,0.007 0.0438,0 0.0185,-0.009 0.0292,-0.0292 0.0438,-0.0438 0.0292,-0.0292 0.0532,-0.0647 0.0876,-0.0876 0.0121,-0.008 0.0307,0.007 0.0438,0 0.0185,-0.009 0.0292,-0.0292 0.0438,-0.0438 0.0292,-0.0292 0.0584,-0.0584 0.0875,-0.0876 0.1452,-0.1452 -0.0413,0.0206 0.0876,-0.0438 0.0369,-0.0185 0.0532,-0.0647 0.0876,-0.0876 0.022,-0.0965 0.0901,-0.0231 0.13134,-0.0438 0.0185,-0.009 0.0292,-0.0292 0.0438,-0.0438 0.0146,-0.0146 0.0292,-0.0292 0.0438,-0.0438 0.073,-0.073 0.14593,-0.14593 0.2189,-0.21889 0.0146,-0.0146 0.0292,-0.0292 0.0438,-0.0438 0.0146,-0.0146 0.0242,-0.0373 0.0438,-0.0438 0.0277,-0.009 0.0599,0.009 0.0876,0 0.0503,-0.0168 0.0607,-0.10452 0.0876,-0.13134 0.0372,-0.0372 0.0893,-0.056 0.13134,-0.0876 0.033,-0.0248 0.0545,-0.0628 0.0876,-0.0876 0.0421,-0.0316 0.0892,-0.056 0.13134,-0.0876 0.0367,-0.0275 0.0955,-0.11342 0.13134,-0.13134 0.013,-0.007 0.0307,0.007 0.0438,0 0.0525,-0.0263 0.0788,-0.10507 0.13134,-0.13134 0.013,-0.007 0.0307,0.007 0.0438,0 0.036,-0.018 0.14273,-0.15353 0.17511,-0.17511 0.0122,-0.008 0.0316,0.008 0.0438,0 0.0515,-0.0343 0.0876,-0.0876 0.13134,-0.13134 0.0146,-0.0146 0.0292,-0.0292 0.0438,-0.0438 0.0146,-0.0146 0.0253,-0.0345 0.0438,-0.0438 0.013,-0.007 0.0335,0.0103 0.0438,0 0.0103,-0.0103 -0.0103,-0.0335 0,-0.0438 0.0103,-0.0103 0.0335,0.0103 0.0438,0 0.0103,-0.0103 -0.0103,-0.0335 0,-0.0438 0.0103,-0.0103 0.0335,-0.0103 0.0438,0 10e-4,10e-4 0,0.12072 0,0.13134 0,0.23349 0,0.46698 0,0.70047 0,0.26268 0,0.52536 0,0.78803 0,0.0451 0.006,0.29354 0,0.30646 -0.009,0.0185 -0.0345,0.0253 -0.0438,0.0438 -0.007,0.013 0.004,0.0296 0,0.0438 -0.0112,0.0448 -0.0326,0.0866 -0.0438,0.13134 -0.0137,0.0548 0.0179,0.12151 0,0.17511 -0.007,0.0196 -0.0345,0.0253 -0.0438,0.0438 -0.0175,0.035 0.0175,0.0963 0,0.13134 -0.009,0.0185 -0.0346,0.0253 -0.0438,0.0438 -0.013,0.0261 0.013,0.0615 0,0.0876 -0.009,0.0185 -0.0346,0.0253 -0.0438,0.0438 -0.013,0.0261 0.0206,0.0669 0,0.0876 -0.0103,0.0103 -0.0373,-0.013 -0.0438,0 -0.013,0.0261 0.007,0.0592 0,0.0876 -0.008,0.0317 -0.0335,0.0566 -0.0438,0.0876 -0.005,0.0138 0.007,0.0307 0,0.0438 -0.009,0.0185 -0.0345,0.0253 -0.0438,0.0438 -0.007,0.013 0,0.0292 0,0.0438 -0.0146,0.0292 -0.0257,0.0604 -0.0438,0.0876 -0.0534,0.0801 -0.0558,0.004 -0.0876,0.13134 -0.007,0.0283 0.013,0.0615 0,0.0876 -0.007,0.013 -0.0335,-0.0103 -0.0438,0 -0.0103,0.0103 0.0103,0.0335 0,0.0438 -0.0103,0.0103 -0.0335,-0.0103 -0.0438,0 -0.0103,0.0103 0.007,0.0307 0,0.0438 -0.009,0.0185 -0.0346,0.0253 -0.0438,0.0438 -0.007,0.013 0.007,0.0307 0,0.0438 -0.009,0.0185 -0.0345,0.0253 -0.0438,0.0438 -0.007,0.013 0.0103,0.0335 0,0.0438 -0.0103,0.0103 -0.0335,-0.0103 -0.0438,0 -0.0103,0.0103 0.0103,0.0335 0,0.0438 -0.0103,0.0103 -0.0335,-0.0103 -0.0438,0 -0.0103,0.0103 0.0103,0.0335 0,0.0438 -0.0103,0.0103 -0.0335,-0.0103 -0.0438,0 -0.0103,0.0103 0.0103,0.0335 0,0.0438 -0.0103,0.0103 -0.0438,0.0146 -0.0438,0 0,-0.0206 0.0292,-0.0292 0.0438,-0.0438 0.0146,-0.0146 0.0253,-0.0346 0.0438,-0.0438 0.013,-0.007 0.0335,0.0103 0.0438,0 0.0103,-0.0103 0,-0.0292 0,-0.0438 0.0146,-0.0146 0.0266,-0.0323 0.0438,-0.0438 0.0272,-0.0181 0.0604,-0.0257 0.0876,-0.0438 0.0172,-0.0115 0.0292,-0.0292 0.0438,-0.0438 0.0146,-0.0146 0.0345,-0.0253 0.0438,-0.0438 0.007,-0.013 -0.0103,-0.0335 0,-0.0438 0.0103,-0.0103 0.0307,0.007 0.0438,0 0.0369,-0.0185 0.0532,-0.0647 0.0876,-0.0876 0.0272,-0.0181 0.0604,-0.0257 0.0876,-0.0438 0.0172,-0.0114 0.0253,-0.0345 0.0438,-0.0438 0.013,-0.007 0.0316,0.008 0.0438,0 0.0343,-0.0229 0.0545,-0.0628 0.0876,-0.0876 0.0261,-0.0196 0.0604,-0.0257 0.0876,-0.0438 0.0172,-0.0114 0.0266,-0.0323 0.0438,-0.0438 0.0272,-0.0181 0.0604,-0.0257 0.0876,-0.0438 0.14033,-0.0936 -0.0909,0.008 0.13133,-0.0876 0.0722,-0.031 0.14861,-0.0524 0.218899,-0.0876 0.0185,-0.009 0.0266,-0.0323 0.0438,-0.0438 0.0271,-0.0181 0.0584,-0.0292 0.0876,-0.0438 0.0292,-0.0146 0.0559,-0.0359 0.0876,-0.0438 0.0283,-0.007 0.0592,0.007 0.0876,0 0.0316,-0.008 0.0592,-0.0276 0.0876,-0.0438 0.0739,-0.0422 0.14068,-0.0978 0.21889,-0.13134 0.0268,-0.0115 0.0592,0.007 0.0876,0 0.0317,-0.008 0.0576,-0.0309 0.0876,-0.0438 0.0722,-0.031 0.14667,-0.0566 0.2189,-0.0876 0.03,-0.0129 0.0559,-0.0359 0.0876,-0.0438 0.0283,-0.007 0.0592,0.007 0.0876,0 0.0317,-0.008 0.0573,-0.0317 0.0876,-0.0438 0.0428,-0.0171 0.0885,-0.0266 0.13134,-0.0438 0.0303,-0.0121 0.0559,-0.0359 0.0876,-0.0438 0.0283,-0.007 0.0592,0.007 0.0876,0 0.0633,-0.0158 0.11321,-0.0669 0.17512,-0.0875 0.0138,-0.005 0.0298,0.004 0.0438,0 0.0887,-0.0254 0.17314,-0.0652 0.26268,-0.0876 0.0283,-0.007 0.0599,0.009 0.0876,0 0.0196,-0.007 0.0253,-0.0345 0.0438,-0.0438 0.013,-0.007 0.0299,0.005 0.0438,0 0.15091,-0.0503 0.0324,-0.0438 0.13133,-0.0438 0.10267,0 -0.0206,0.0103 0.0876,-0.0438 0.035,-0.0175 0.0963,0.0175 0.13134,0 0.0185,-0.009 0.0253,-0.0345 0.0438,-0.0438 0.0261,-0.013 0.0615,0.013 0.0876,0 0.0185,-0.009 0.0253,-0.0345 0.0438,-0.0438 0.013,-0.007 0.0292,0 0.0438,0 0.0146,0 0.0335,-0.0103 0.0438,0 0.0334,0.0334 -0.0369,0.0773 -0.0438,0.0876 -0.0181,0.0272 -0.0242,0.0614 -0.0438,0.0876 -0.0248,0.033 -0.0647,0.0532 -0.0876,0.0876 -0.008,0.0121 0.007,0.0307 0,0.0438 -0.009,0.0185 -0.0345,0.0253 -0.0438,0.0438 -0.007,0.013 0.007,0.0307 0,0.0438 -0.0185,0.0369 -0.0691,0.0507 -0.0876,0.0876 -0.007,0.0131 0.007,0.0307 0,0.0438 -0.0194,0.0388 -0.10477,0.0915 -0.13134,0.13134 -0.0181,0.0272 -0.0257,0.0604 -0.0438,0.0876 -0.0114,0.0172 -0.0345,0.0253 -0.0438,0.0438 -0.007,0.013 0.007,0.0307 0,0.0438 -0.009,0.0185 -0.0292,0.0292 -0.0438,0.0438 -0.0292,0.0292 -0.0647,0.0532 -0.0875,0.0876 -0.008,0.0121 0.007,0.0307 0,0.0438 -0.009,0.0185 -0.0292,0.0292 -0.0438,0.0438 -0.0292,0.0292 -0.0636,0.054 -0.0876,0.0876 -0.0495,0.0692 -0.0841,0.14809 -0.13134,0.21889 -0.0115,0.0172 -0.0292,0.0292 -0.0438,0.0438 -0.11675,0.11675 -0.24279,0.22488 -0.35024,0.35024 -0.0212,0.0248 -0.0257,0.0604 -0.0438,0.0876 -0.0671,0.10058 -0.025,-0.0188 -0.13133,0.0876 -0.0231,0.0231 -0.0257,0.0604 -0.0438,0.0876 -0.0115,0.0172 -0.0292,0.0292 -0.0438,0.0438 -0.0584,0.0584 -0.12227,0.11171 -0.17512,0.17512 -0.0209,0.0251 -0.0257,0.0604 -0.0438,0.0876 -0.0401,0.0602 -0.0675,0.045 -0.13134,0.0876 -0.0718,0.0478 -0.0268,0.0554 -0.0876,0.13134 -2.1e-4,2.6e-4 -0.17766,0.19141 -0.2189,0.2189 -0.0272,0.0181 -0.0645,0.0207 -0.0876,0.0438 -0.0103,0.0103 0.007,0.0307 0,0.0438 -0.009,0.0185 -0.0292,0.0292 -0.0438,0.0438 -0.0146,0.0146 -0.0292,0.0292 -0.0438,0.0438 -0.0419,0.0419 -0.084,0.0958 -0.13134,0.13133 -0.0421,0.0316 -0.0941,0.0504 -0.13134,0.0876 -0.0231,0.0231 -0.0257,0.0604 -0.0438,0.0876 -0.0252,0.0378 -0.0971,0.0971 -0.13134,0.13134 -0.0146,0.0146 -0.0292,0.0292 -0.0438,0.0438 -0.0146,0.0292 -0.0207,0.0645 -0.0438,0.0876 -0.0906,0.0906 0.004,-0.13842 -0.0876,0.0438 -0.007,0.013 0.0103,0.0335 0,0.0438 -0.0103,0.0103 -0.0307,-0.007 -0.0438,0 -0.18219,0.0911 0.0468,-0.003 -0.0438,0.0876 -0.0103,0.0103 -0.0438,0.0146 -0.0438,0 0,-0.0141 0.0754,-0.0632 0.0876,-0.0876 0.007,-0.013 -0.007,-0.0307 0,-0.0438 0.0185,-0.0369 0.0691,-0.0506 0.0876,-0.0876 0.007,-0.013 -0.0103,-0.0335 0,-0.0438 0.0906,-0.0906 -0.004,0.13842 0.0876,-0.0438 0.007,-0.013 0,-0.0292 0,-0.0438 0.0146,-0.0146 0.0345,-0.0253 0.0438,-0.0438 0.007,-0.013 -0.0103,-0.0335 0,-0.0438 0.0103,-0.0103 0.0307,0.007 0.0438,0 0.0968,-0.0484 0.0136,-0.0272 0.0438,-0.0876 0.0139,-0.0279 0.1845,-0.1845 0.2189,-0.21889 0.0146,-0.0146 0.0345,-0.0253 0.0438,-0.0438 0.007,-0.013 0,-0.0292 0,-0.0438 0.0292,-0.0438 0.056,-0.0892 0.0876,-0.13134 0.049,-0.0654 0.12608,-0.10974 0.17511,-0.17512 0.0316,-0.0421 0.0455,-0.0998 0.0876,-0.13134 0.17698,-0.13273 0.0183,0.11449 0.13134,-0.0438 0.0612,-0.0856 0.10664,-0.18278 0.17512,-0.26267 0.0212,-0.0248 0.0604,-0.0257 0.0876,-0.0438 0.0505,-0.0337 0.0808,-0.0977 0.13134,-0.13133 0.0271,-0.0181 0.0645,-0.0207 0.0876,-0.0438 0.10633,-0.10633 -0.013,-0.0643 0.0876,-0.13134 0.31742,-0.15871 -0.0692,0.0462 0.13133,-0.0876 0.0271,-0.0181 0.0625,-0.0229 0.0876,-0.0438 0.0634,-0.0529 0.11299,-0.12076 0.17512,-0.17512 0.0549,-0.048 0.11814,-0.0857 0.17512,-0.13134 0.0161,-0.0129 0.0266,-0.0323 0.0438,-0.0438 0.0272,-0.0181 0.0604,-0.0257 0.0876,-0.0438 0.0172,-0.0114 0.0266,-0.0323 0.0438,-0.0438 0.0271,-0.0181 0.0604,-0.0257 0.0876,-0.0438 0.0343,-0.0229 0.0532,-0.0647 0.0875,-0.0876 0.022,-0.0965 0.0901,-0.0231 0.13134,-0.0438 0.0185,-0.009 0.0266,-0.0323 0.0438,-0.0438 0.0271,-0.0181 0.0604,-0.0257 0.0876,-0.0438 0.0344,-0.0229 0.0484,-0.0745 0.0876,-0.0876 0.3101,-0.10337 -0.29024,0.24419 0.26268,-0.0876 0.0354,-0.0213 0.0506,-0.0691 0.0876,-0.0876 0.0413,-0.0206 0.0885,-0.0266 0.13134,-0.0438 0.0303,-0.0121 0.0566,-0.0335 0.0875,-0.0438 0.0138,-0.005 0.0299,0.005 0.0438,0 0.031,-0.0103 0.0573,-0.0317 0.0876,-0.0438 0.0429,-0.0171 0.0901,-0.0232 0.13134,-0.0438 0.0185,-0.009 0.0253,-0.0345 0.0438,-0.0438 0.0139,-0.007 0.17977,0 0.2189,0 0.0146,0 0.0335,0.0103 0.0438,0 0.0103,-0.0103 -0.0103,-0.0335 0,-0.0438 0.0103,-0.0103 0.0335,-0.0103 0.0438,0 0.0103,0.0103 0,0.0292 0,0.0438 0,0.0146 0,0.0292 0,0.0438 0,0.0353 0.009,0.14764 0,0.17512 -0.0103,0.031 -0.0374,0.0556 -0.0438,0.0876 -0.009,0.0429 0,0.0876 0,0.13134 0,0.0146 0.005,0.0299 0,0.0438 -0.0103,0.0309 -0.0335,0.0566 -0.0438,0.0876 -0.009,0.0277 0.009,0.0599 0,0.0876 -0.0103,0.031 -0.0335,0.0566 -0.0438,0.0876 -0.005,0.0138 0.005,0.0299 0,0.0438 -0.0103,0.031 -0.0359,0.0559 -0.0438,0.0876 -0.007,0.0283 0.009,0.0599 0,0.0876 -0.007,0.0196 -0.0373,0.0242 -0.0438,0.0438 -0.009,0.0277 0.007,0.0592 0,0.0876 -0.008,0.0317 -0.0359,0.0559 -0.0438,0.0876 -0.007,0.0283 0.008,0.0595 0,0.0876 -0.0198,0.0695 -0.1194,0.31044 -0.17512,0.39402 -0.0115,0.0172 -0.0373,0.0242 -0.0438,0.0438 -0.009,0.0277 0.007,0.0592 0,0.0876 -0.008,0.0317 -0.0292,0.0584 -0.0438,0.0876 -0.0146,0.0292 -0.0292,0.0584 -0.0438,0.0876 -0.0292,0.0584 -0.0513,0.12082 -0.0876,0.17512 -0.0114,0.0172 -0.0323,0.0266 -0.0438,0.0438 -0.0362,0.0543 -0.0552,0.11845 -0.0876,0.17512 -0.0422,0.0739 -0.0978,0.14068 -0.13134,0.21889 -0.0115,0.0268 0.013,0.0615 0,0.0876 -0.0185,0.0369 -0.0647,0.0532 -0.0876,0.0876 -0.008,0.0121 0.007,0.0307 0,0.0438 -0.0438,0.073 -0.0876,0.14593 -0.13134,0.2189 -0.0146,0.0146 -0.0323,0.0266 -0.0438,0.0438 -0.0181,0.0272 -0.0257,0.0604 -0.0438,0.0876 -0.0229,0.0343 -0.0647,0.0532 -0.0876,0.0876 -0.0181,0.0272 -0.0292,0.0584 -0.0438,0.0876 -0.0292,0.0292 -0.0628,0.0545 -0.0876,0.0875 -0.0196,0.0261 -0.0257,0.0604 -0.0438,0.0876 -0.0114,0.0172 -0.0292,0.0292 -0.0438,0.0438 -0.0584,0.0584 -0.11674,0.11675 -0.17511,0.17512 -0.0292,0.0292 -0.0647,0.0532 -0.0876,0.0876 -0.0181,0.0272 -0.0257,0.0604 -0.0438,0.0876 -0.0275,0.0412 -0.21484,0.21484 -0.2189,0.2189 -0.0876,0.0875 -0.17512,0.17511 -0.26268,0.26267 -0.11674,0.11675 -0.23349,0.23349 -0.35023,0.35024 -0.023,0.023 -0.10796,0.11965 -0.13134,0.13134 -0.013,0.007 -0.0335,-0.0103 -0.0438,0 -0.0103,0.0103 0.0146,0.0438 0,0.0438 -0.0146,0 -0.0103,-0.0335 0,-0.0438 0.0103,-0.0103 0.0335,0.0103 0.0438,0 0.0103,-0.0103 -0.0103,-0.0335 0,-0.0438 0.0103,-0.0103 0.0335,0.0103 0.0438,0 0.0103,-0.0103 -0.007,-0.0307 0,-0.0438 0.009,-0.0188 0.17403,-0.17439 0.17512,-0.17512 0.0121,-0.008 0.0335,0.0103 0.0438,0 0.0103,-0.0103 -0.007,-0.0307 0,-0.0438 0.0117,-0.0234 0.10829,-0.10829 0.13133,-0.13134 0.0438,-0.0438 0.0876,-0.0876 0.13134,-0.13134 0.0292,-0.0292 0.0545,-0.0628 0.0876,-0.0876 0.0421,-0.0316 0.0893,-0.056 0.13134,-0.0875 0.1341,-0.10058 -0.0718,0.028 0.0876,-0.13134 0.0231,-0.0231 0.0604,-0.0257 0.0876,-0.0438 0.0172,-0.0115 0.0292,-0.0292 0.0438,-0.0438 0.0292,-0.0146 0.0604,-0.0257 0.0876,-0.0438 0.0172,-0.0115 0.0281,-0.0304 0.0438,-0.0438 0.0865,-0.0742 0.17271,-0.14892 0.26267,-0.2189 0.0951,-0.074 0.1236,-0.0837 0.2189,-0.13134 0.0292,-0.0146 0.0604,-0.0257 0.0876,-0.0438 0.0172,-0.0114 0.0266,-0.0323 0.0438,-0.0438 0.0271,-0.0181 0.0584,-0.0292 0.0876,-0.0438 0.0292,-0.0146 0.0566,-0.0335 0.0876,-0.0438 0.0138,-0.005 0.0292,0 0.0438,0 0.0292,-0.0146 0.0592,-0.0276 0.0876,-0.0438 0.0739,-0.0422 0.14501,-0.0891 0.21889,-0.13133 0.0567,-0.0324 0.12082,-0.0514 0.17512,-0.0876 0.0801,-0.0534 0.004,-0.0558 0.13134,-0.0876 0.0283,-0.007 0.0592,0.007 0.0876,0 0.0949,-0.0237 0.12397,-0.10761 0.2189,-0.13134 0.0283,-0.007 0.0599,0.009 0.0876,0 0.0196,-0.007 0.0292,-0.0292 0.0438,-0.0438 0.0292,-0.0146 0.0559,-0.0359 0.0876,-0.0438 0.0283,-0.007 0.0584,0 0.0876,0 0.0584,-0.0292 0.11321,-0.0669 0.17512,-0.0876 0.0277,-0.009 0.0599,0.009 0.0876,0 0.0619,-0.0206 0.11915,-0.054 0.17512,-0.0876 0.0177,-0.0106 0.0242,-0.0373 0.0438,-0.0438 0.19929,0 0.002,0.0206 0.13134,-0.0438 0.013,-0.007 0.0292,0 0.0438,0 0.0292,0 0.0599,0.009 0.0876,0 0.0196,-0.007 0.0253,-0.0345 0.0438,-0.0438 0.0261,-0.013 0.0615,0.013 0.0876,0 0.0185,-0.009 0.0253,-0.0346 0.0438,-0.0438 0.0131,-0.007 0.0296,0.004 0.0438,0 0.0448,-0.0112 0.0866,-0.0326 0.13134,-0.0438 0.0283,-0.007 0.0614,0.013 0.0876,0 0.0185,-0.009 0.0253,-0.0345 0.0438,-0.0438 0.013,-0.007 0.0292,0 0.0438,0 0.0146,0 0.0335,-0.0103 0.0438,0 10e-4,0.001 0,0.12072 0,0.13134 0,0.14092 0.0103,-0.0747 -0.0438,0.0876 -0.009,0.0277 0.007,0.0592 0,0.0876 -0.008,0.0317 -0.0335,0.0566 -0.0438,0.0876 -0.005,0.0138 0.007,0.0307 0,0.0438 -0.0185,0.0369 -0.0691,0.0506 -0.0876,0.0876 -0.007,0.013 0.005,0.0299 0,0.0438 -0.0103,0.031 -0.0335,0.0566 -0.0438,0.0876 -0.005,0.0138 0.005,0.0299 0,0.0438 -0.0265,0.0795 -0.0375,0.0813 -0.0876,0.13134 -0.0445,0.0445 -0.0699,0.0607 -0.0876,0.13133 -0.007,0.0283 0.009,0.0599 0,0.0876 -0.007,0.0196 -0.0323,0.0266 -0.0438,0.0438 -0.0181,0.0272 -0.0276,0.0592 -0.0438,0.0876 -0.0422,0.0739 -0.0891,0.14502 -0.13134,0.2189 -0.0162,0.0283 -0.0257,0.0604 -0.0438,0.0876 -0.0343,0.0515 -0.0942,0.0818 -0.13133,0.13134 -0.0196,0.0261 -0.0292,0.0584 -0.0438,0.0876 -0.0292,0.0584 -0.0514,0.12081 -0.0876,0.17512 -0.0229,0.0343 -0.0607,0.0562 -0.0876,0.0875 -0.0608,0.071 -0.12081,0.14286 -0.17512,0.2189 -0.019,0.0265 -0.0242,0.0614 -0.0438,0.0876 -0.0248,0.033 -0.0604,0.0565 -0.0876,0.0876 -0.075,0.0858 -0.15051,0.17149 -0.21889,0.26268 -0.0196,0.0261 -0.0242,0.0615 -0.0438,0.0876 -0.0613,0.0817 -0.1576,0.13717 -0.21889,0.21889 -0.0316,0.0421 -0.0504,0.0941 -0.0876,0.13134 -0.0231,0.0231 -0.0645,0.0207 -0.0876,0.0438 -0.0231,0.0231 -0.0221,0.0632 -0.0438,0.0876 -0.096,0.10797 -0.20884,0.19996 -0.30646,0.30646 -0.0631,0.0689 -0.11529,0.14711 -0.17511,0.21889 -0.0132,0.0159 -0.0266,0.0323 -0.0438,0.0438 -0.0271,0.0181 -0.0645,0.0207 -0.0876,0.0438 -0.10633,0.10633 0.013,0.0643 -0.0876,0.13134 -0.0272,0.0181 -0.0645,0.0207 -0.0876,0.0438 -0.053,0.10602 -0.0207,0.0645 -0.0876,0.13134 -0.0438,0.0438 -0.0876,0.0876 -0.13134,0.13134 -0.0584,0.0584 -0.1117,0.12227 -0.17512,0.17511 -0.0251,0.0209 -0.0604,0.0257 -0.0875,0.0438 -0.0172,0.0114 -0.0292,0.0292 -0.0438,0.0438 -0.0146,0.0146 -0.0346,0.0253 -0.0438,0.0438 -0.007,0.0131 0.0103,0.0335 0,0.0438 -0.0103,0.0103 -0.0307,-0.007 -0.0438,0 -0.0185,0.009 -0.0253,0.0346 -0.0438,0.0438 -0.013,0.007 -0.0335,-0.0103 -0.0438,0 0,0.0644 0.0103,0.0335 -0.0438,0.0876 -0.0146,0.0146 -0.0253,0.0345 -0.0438,0.0438 -0.013,0.007 -0.0335,-0.0103 -0.0438,0 -0.0103,0.0103 0.0103,0.0335 0,0.0438 -0.0103,0.0103 -0.0335,0.0103 -0.0438,0 -0.004,-0.004 -0.004,-0.12696 0,-0.13134 0.0103,-0.0103 0.0335,0.0103 0.0438,0 0.0206,-0.0206 -0.0206,-0.0669 0,-0.0876 0.0103,-0.0103 0.0373,0.0131 0.0438,0 0.013,-0.0261 -0.013,-0.0614 0,-0.0876 0.007,-0.013 0.0335,0.0103 0.0438,0 4e-5,-4e-5 -7e-5,-0.13114 0,-0.13134 0.007,-0.0196 0.0345,-0.0253 0.0438,-0.0438 0.007,-0.013 -0.007,-0.0307 0,-0.0438 0.0185,-0.0369 0.0745,-0.0484 0.0876,-0.0876 0.009,-0.0277 -0.009,-0.0599 0,-0.0876 0.007,-0.0196 0.0323,-0.0266 0.0438,-0.0438 0.0181,-0.0272 0.0335,-0.0566 0.0438,-0.0876 0.005,-0.0138 -0.005,-0.0299 0,-0.0438 0.0529,-0.15871 0.0208,-0.0312 0.0875,-0.13134 0.0472,-0.0708 0.0891,-0.14502 0.13134,-0.2189 0.0324,-0.0567 0.0584,-0.11674 0.0876,-0.17511 0.0146,-0.0292 0.0242,-0.0615 0.0438,-0.0876 0.0248,-0.033 0.0647,-0.0532 0.0876,-0.0876 0.008,-0.0121 -0.008,-0.0316 0,-0.0438 0.0229,-0.0343 0.0628,-0.0545 0.0876,-0.0876 0.0196,-0.0261 0.0265,-0.0599 0.0438,-0.0876 0.0558,-0.0892 0.11395,-0.17704 0.17512,-0.26268 0.012,-0.0168 0.0323,-0.0266 0.0438,-0.0438 0.0181,-0.0272 0.0257,-0.0604 0.0438,-0.0876 0.0405,-0.0607 0.0909,-0.11441 0.13134,-0.17512 0.0181,-0.0272 0.0292,-0.0584 0.0438,-0.0876 0.0292,-0.0292 0.0628,-0.0545 0.0876,-0.0876 0.0196,-0.0261 0.0207,-0.0645 0.0438,-0.0876 0.0231,-0.0231 0.0645,-0.0207 0.0876,-0.0438 0.0231,-0.0231 0.0242,-0.0615 0.0438,-0.0876 0.0611,-0.0815 0.1525,-0.14144 0.2189,-0.21889 0.27853,-0.32496 0.1299,-0.17368 0.26267,-0.30646 0.073,-0.073 0.14594,-0.14593 0.2189,-0.2189 0.0292,-0.0292 0.0584,-0.0584 0.0876,-0.0876 0.0146,-0.0146 0.0323,-0.0266 0.0438,-0.0438 0.0181,-0.0272 0.0234,-0.0621 0.0438,-0.0876 0.009,-0.14417 0.15283,-0.10904 0.2189,-0.17511 0.0231,-0.0231 0.0207,-0.0645 0.0438,-0.0876 0.0661,-0.0661 0.14711,-0.1153 0.2189,-0.17512 0.20325,-0.16938 -0.39088,0.28925 0.21889,-0.2189 0.0251,-0.0209 0.0604,-0.0257 0.0876,-0.0438 0.0344,-0.0229 0.0532,-0.0647 0.0876,-0.0876 0.0271,-0.0181 0.0604,-0.0257 0.0876,-0.0438 0.0343,-0.0229 0.0532,-0.0647 0.0876,-0.0876 0.0272,-0.0181 0.0604,-0.0257 0.0876,-0.0438 0.0343,-0.0229 0.0532,-0.0647 0.0876,-0.0876 0.0708,-0.0472 0.1481,-0.0841 0.2189,-0.13134 0.0172,-0.0115 0.0253,-0.0345 0.0438,-0.0438 0.013,-0.007 0.0307,0.007 0.0438,0 0.0525,-0.0263 0.0788,-0.10507 0.13134,-0.13134 0.013,-0.007 0.0307,0.007 0.0438,0 0.0185,-0.009 0.0253,-0.0346 0.0438,-0.0438 0.013,-0.007 0.0316,0.008 0.0438,0 0.0505,-0.0337 0.0808,-0.0977 0.13134,-0.13134 0.0271,-0.0181 0.0604,-0.0257 0.0876,-0.0438 0.0867,0.004 0.0207,-0.0645 0.0438,-0.0876 0.0206,-0.0206 0.0669,0.0206 0.0876,0 0.0103,-0.0103 -0.0103,-0.0335 0,-0.0438 0.0103,-0.0103 0.0335,-0.0103 0.0438,0 0.0103,0.0103 0,0.0292 0,0.0438 0,0.0146 0,0.0292 0,0.0438 0,0.11675 0,0.23349 0,0.35024 0,0.0371 0.008,0.15158 0,0.17512 -0.007,0.0196 -0.0345,0.0253 -0.0438,0.0438 -0.014,0.028 0.0117,0.13988 0,0.17512 -0.0103,0.031 -0.0335,0.0566 -0.0438,0.0876 -0.009,0.0267 0,0.22887 0,0.26268 0,0.0146 0.007,0.0307 0,0.0438 -0.009,0.0185 -0.0345,0.0253 -0.0438,0.0438 -0.0116,0.0232 0.01,0.18911 0,0.2189 -0.007,0.0196 -0.0345,0.0253 -0.0438,0.0438 -0.013,0.0261 0.013,0.0615 0,0.0876 -0.009,0.0185 -0.0345,0.0253 -0.0438,0.0438 -0.0129,0.0258 0.01,0.10122 0,0.13133 -0.0103,0.031 -0.0335,0.0566 -0.0438,0.0876 -0.005,0.0138 0,0.0292 0,0.0438 -0.0146,0.0438 -0.0232,0.0901 -0.0438,0.13134 -0.009,0.0185 -0.0346,0.0253 -0.0438,0.0438 -0.007,0.013 0.005,0.0299 0,0.0438 -0.0103,0.031 -0.0335,0.0566 -0.0438,0.0876 -0.009,0.0277 0.013,0.0614 0,0.0876 -0.009,0.0185 -0.0345,0.0253 -0.0438,0.0438 -0.007,0.013 0.007,0.0307 0,0.0438 -0.0235,0.0471 -0.068,0.0825 -0.0876,0.13134 -0.0109,0.0271 0.009,0.0599 0,0.0876 -0.007,0.0196 -0.0345,0.0253 -0.0438,0.0438 -0.007,0.0131 0.007,0.0307 0,0.0438 -0.009,0.0185 -0.0323,0.0266 -0.0438,0.0438 -0.0181,0.0271 -0.0257,0.0604 -0.0438,0.0876 -0.0115,0.0172 -0.0373,0.0242 -0.0438,0.0438 -0.009,0.0277 0.009,0.0599 0,0.0876 -0.007,0.0196 -0.0346,0.0253 -0.0438,0.0438 -0.0206,0.0413 -0.0231,0.0901 -0.0438,0.13134 -0.0185,0.0369 -0.0647,0.0532 -0.0875,0.0876 -0.0965,0.022 -0.0232,0.0901 -0.0438,0.13133 -0.009,0.0185 -0.0323,0.0266 -0.0438,0.0438 -0.0181,0.0271 -0.0257,0.0604 -0.0438,0.0876 -0.0115,0.0172 -0.0345,0.0253 -0.0438,0.0438 -0.007,0.013 0.005,0.0299 0,0.0438 -0.0334,0.10026 -0.0764,0.10184 -0.13134,0.17512 -0.03,0.04 -0.11097,0.15778 -0.13134,0.2189 -0.005,0.0138 0.008,0.0316 0,0.0438 -0.0229,0.0343 -0.0584,0.0584 -0.0876,0.0876 -0.0146,0.0146 -0.0345,0.0253 -0.0438,0.0438 -0.007,0.013 0.007,0.0307 0,0.0438 -0.009,0.0185 -0.0292,0.0292 -0.0438,0.0438 -0.0501,0.0501 -0.061,0.0518 -0.0876,0.13133 -0.005,0.0138 0.007,0.0307 0,0.0438 -0.0185,0.0369 -0.0691,0.0506 -0.0876,0.0876 -0.007,0.013 0.0103,0.0335 0,0.0438 -0.0103,0.0103 -0.0335,-0.0103 -0.0438,0 -0.0103,0.0103 0.007,0.0307 0,0.0438 -0.009,0.0185 -0.0346,0.0253 -0.0438,0.0438 -0.003,0.007 0.0191,0.15042 -0.0438,0.0876 -0.0103,-0.0103 0,-0.0292 0,-0.0438 0,-0.0146 -0.0103,-0.0335 0,-0.0438 0.0103,-0.0103 0.0335,0.0103 0.0438,0 0.0103,-0.0103 0,-0.0292 0,-0.0438 0,-0.0989 -0.007,0.0196 0.0438,-0.13134 0.005,-0.0138 -0.005,-0.0299 0,-0.0438 0.0206,-0.0619 0.0633,-0.11452 0.0876,-0.17511 0.0172,-0.0429 0.0326,-0.0866 0.0438,-0.13134 0.004,-0.0142 -0.007,-0.0307 0,-0.0438 0.009,-0.0185 0.0323,-0.0266 0.0438,-0.0438 0.0965,-0.022 0.0232,-0.0901 0.0438,-0.13134 0.009,-0.0185 0.0373,-0.0242 0.0438,-0.0438 0.009,-0.0277 -0.009,-0.0599 0,-0.0876 0.007,-0.0196 0.0373,-0.0242 0.0438,-0.0438 0.009,-0.0277 -0.009,-0.0599 0,-0.0876 0.007,-0.0196 0.0292,-0.0292 0.0438,-0.0438 0.0501,-0.0501 0.0611,-0.0518 0.0876,-0.13134 0.005,-0.0138 -0.005,-0.0299 0,-0.0438 0.0103,-0.031 0.0317,-0.0573 0.0438,-0.0876 0.0171,-0.0428 0.0232,-0.0901 0.0438,-0.13134 0.0667,-0.13351 0.0347,0.0801 0.0876,-0.13134 0.007,-0.0283 -0.009,-0.0599 0,-0.0876 0.007,-0.0196 0.0323,-0.0266 0.0438,-0.0438 0.0362,-0.0543 0.0513,-0.12082 0.0876,-0.17512 0.0115,-0.0172 0.0346,-0.0253 0.0438,-0.0438 0.0206,-0.0413 0.0266,-0.0885 0.0438,-0.13134 0.0242,-0.0606 0.0633,-0.11452 0.0875,-0.17512 0.0172,-0.0428 0.0267,-0.0885 0.0438,-0.13133 0.0379,-0.0947 0.14164,-0.23949 0.17512,-0.30646 0.007,-0.013 0,-0.0292 0,-0.0438 0.0146,-0.0292 0.0257,-0.0604 0.0438,-0.0876 0.0115,-0.0172 0.0323,-0.0266 0.0438,-0.0438 0.0231,-0.0346 0.11845,-0.22402 0.13134,-0.26267 0.005,-0.0138 -0.007,-0.0307 0,-0.0438 0.038,-0.0761 0.0862,-0.14674 0.13134,-0.2189 0.0279,-0.0446 0.068,-0.0825 0.0876,-0.13134 0.0108,-0.0271 -0.007,-0.0592 0,-0.0876 0.0317,-0.12697 0.0341,-0.0512 0.0876,-0.13134 0.0181,-0.0272 0.0292,-0.0584 0.0438,-0.0876 0.0146,-0.0292 0.0335,-0.0566 0.0438,-0.0876 0.0434,-0.13033 -0.10366,0.0898 0.0438,-0.13134 0.0115,-0.0172 0.0323,-0.0266 0.0438,-0.0438 0.0181,-0.0272 0.0292,-0.0584 0.0438,-0.0876 0.0146,-0.0292 0.0359,-0.0559 0.0438,-0.0876 0.007,-0.0283 -0.009,-0.0599 0,-0.0876 0.007,-0.0196 0.0309,-0.0277 0.0438,-0.0438 0.1401,-0.17512 0.13134,-0.10449 0.13134,-0.2189 0,-0.24808 -0.0292,-0.0146 0.0438,-0.0876 0.0103,-0.0103 -0.005,-0.0299 0,-0.0438 0.0103,-0.031 0.0207,-0.0645 0.0438,-0.0876 0.0103,-0.0103 0.0335,0.0103 0.0438,0 0.0206,-0.0206 -0.0206,-0.0669 0,-0.0876 0.0103,-0.0103 0.0335,0.0103 0.0438,0 0.0206,-0.0206 -0.0206,-0.0669 0,-0.0876 0.0103,-0.0103 0.0335,0.0103 0.0438,0 0.0206,-0.0206 -0.0206,-0.0669 0,-0.0876 0.0103,-0.0103 0.0292,0 0.0438,0 0,-0.0146 -0.007,-0.0307 0,-0.0438 0.009,-0.0185 0.0345,-0.0253 0.0438,-0.0438 0.007,-0.013 -0.0146,-0.0438 0,-0.0438 0.0146,0 0,0.0292 0,0.0438 0,0.0292 0,0.0584 0,0.0876 0,0.073 0,0.14593 0,0.2189 0,0.0349 0.009,0.19263 0,0.2189 -0.0103,0.0309 -0.0335,0.0566 -0.0438,0.0875 -0.0142,0.0427 0.0139,0.1772 0,0.2189 -0.0103,0.031 -0.0359,0.0559 -0.0438,0.0876 -0.0219,0.0876 0.0109,0.0657 0,0.13134 -0.0122,0.0734 -0.0346,0.14506 -0.0438,0.2189 -0.005,0.0434 0,0.0876 0,0.13133 0,0.0146 0.005,0.0299 0,0.0438 -0.0568,0.1705 -0.0438,0.004 -0.0438,0.17512 0,0.22186 0.013,-0.0522 -0.0438,0.17512 -0.007,0.0283 0.009,0.0599 0,0.0876 -0.007,0.0196 -0.0373,0.0242 -0.0438,0.0438 -0.009,0.0277 0.006,0.0591 0,0.0876 -0.023,0.10371 -0.0645,0.20274 -0.0876,0.30645 -0.006,0.0285 0.007,0.0592 0,0.0876 -0.008,0.0317 -0.0292,0.0584 -0.0438,0.0876 -0.0146,0.0438 -0.0347,0.0861 -0.0438,0.13134 -0.006,0.0286 0.007,0.0592 0,0.0876 -0.008,0.0316 -0.0374,0.0556 -0.0438,0.0876 -0.009,0.0429 0.009,0.0884 0,0.13133 -0.006,0.032 -0.0292,0.0584 -0.0438,0.0876 -0.0292,0.0584 -0.0669,0.1132 -0.0876,0.17511 -0.009,0.0277 0.007,0.0593 0,0.0876 -0.008,0.0317 -0.0359,0.0559 -0.0438,0.0876 -0.0501,0.20036 0.0884,-0.0455 -0.0438,0.2189 -0.009,0.0185 -0.0388,0.0238 -0.0438,0.0438 -0.0106,0.0425 0.009,0.0884 0,0.13134 -0.006,0.032 -0.0335,0.0566 -0.0438,0.0876 -0.005,0.0138 0,0.0292 0,0.0438 -0.0146,0.0438 -0.0276,0.0881 -0.0438,0.13134 -0.0276,0.0736 -0.0573,0.14636 -0.0876,0.2189 -0.0427,0.10259 -0.0962,0.20102 -0.13134,0.30646 -0.009,0.0277 0.007,0.0592 0,0.0876 -0.008,0.0316 -0.0335,0.0566 -0.0438,0.0875 -0.005,0.0138 0.007,0.0307 0,0.0438 -0.0235,0.0471 -0.068,0.0825 -0.0876,0.13133 -0.0108,0.0271 0.009,0.0599 0,0.0876 -0.007,0.0196 -0.0323,0.0266 -0.0438,0.0438 -0.12747,0.19121 0.0194,-0.0144 -0.0438,0.17512 -0.007,0.0196 -0.0345,0.0253 -0.0438,0.0438 -0.007,0.013 0.007,0.0307 0,0.0438 -0.009,0.0185 -0.0345,0.0253 -0.0438,0.0438 -0.013,0.0261 0.013,0.0615 0,0.0876 -0.009,0.0185 -0.0346,0.0253 -0.0438,0.0438 -0.007,0.013 0.0103,0.0335 0,0.0438 -0.0103,0.0103 -0.0335,-0.0103 -0.0438,0 -0.0219,0.0219 0.0219,0.10945 0,0.13134 -0.0103,0.0103 -0.0335,-0.0103 -0.0438,0 -0.0103,0.0103 0.007,0.0307 0,0.0438 -0.009,0.0185 -0.0345,0.0253 -0.0438,0.0438 -0.007,0.0131 0.007,0.0307 0,0.0438 -0.009,0.0185 -0.0345,0.0253 -0.0438,0.0438 -0.0131,0.0262 0.0288,0.0876 -0.0438,0.0876 -0.0705,0 0.0216,-0.0543 0.0438,-0.0876 0.0181,-0.0272 0.0257,-0.0604 0.0438,-0.0876 0.0115,-0.0172 0.0345,-0.0253 0.0438,-0.0438 0.007,-0.013 -0.007,-0.0307 0,-0.0438 0.009,-0.0185 0.0314,-0.0273 0.0438,-0.0438 0.0316,-0.0421 0.056,-0.0892 0.0876,-0.13134 0.0124,-0.0165 0.0345,-0.0253 0.0438,-0.0438 0.007,-0.013 0,-0.0292 0,-0.0438 0.0146,-0.0292 0.0257,-0.0604 0.0438,-0.0876 0.0229,-0.0344 0.0745,-0.0484 0.0876,-0.0876 0.009,-0.0277 -0.009,-0.0599 0,-0.0876 0.013,-0.0392 0.0647,-0.0532 0.0876,-0.0876 0.0181,-0.0271 0.0257,-0.0604 0.0438,-0.0876 0.0668,-0.10018 0.0346,0.0274 0.0876,-0.13134 0.005,-0.0138 -0.008,-0.0316 0,-0.0438 0.0229,-0.0344 0.0628,-0.0545 0.0876,-0.0876 0.0507,-0.0676 0.0827,-0.18977 0.13134,-0.26267 0.0114,-0.0172 0.0323,-0.0266 0.0438,-0.0438 0.0181,-0.0272 0.0257,-0.0604 0.0438,-0.0876 0.0115,-0.0172 0.0323,-0.0266 0.0438,-0.0438 0.0181,-0.0272 0.0257,-0.0604 0.0438,-0.0876 0.0115,-0.0172 0.0323,-0.0266 0.0438,-0.0438 0.0362,-0.0543 0.0458,-0.12498 0.0876,-0.17512 0.0528,-0.0634 0.12227,-0.1117 0.17512,-0.17511 0.0209,-0.0251 0.0276,-0.0592 0.0438,-0.0876 0.0422,-0.0739 0.0891,-0.14502 0.13134,-0.2189 0.0162,-0.0283 0.0257,-0.0604 0.0438,-0.0876 0.0114,-0.0172 0.0323,-0.0266 0.0438,-0.0438 0.0362,-0.0543 0.0513,-0.12081 0.0875,-0.17512 0.0115,-0.0172 0.0323,-0.0266 0.0438,-0.0438 0.15872,-0.31742 -0.0461,0.0692 0.0876,-0.13133 0.0181,-0.0272 0.0257,-0.0604 0.0438,-0.0876 0.0115,-0.0172 0.0323,-0.0266 0.0438,-0.0438 0.20372,-0.30557 -0.19426,0.21524 0.13134,-0.2189 0.1501,-0.20013 -0.16208,0.3431 0.17512,-0.2189 0.008,-0.0125 -0.007,-0.0307 0,-0.0438 0.0185,-0.0369 0.0745,-0.0484 0.0876,-0.0876 0.009,-0.0277 -0.009,-0.0599 0,-0.0875 -0.0164,-0.0954 0.073,-0.0146 0.0876,-0.0438 0.013,-0.0261 -0.009,-0.0599 0,-0.0876 0.007,-0.0196 0.0345,-0.0253 0.0438,-0.0438 0.007,-0.013 -0.0103,-0.0335 0,-0.0438 0.0103,-0.0103 0.0335,0.0103 0.0438,0 0.0103,-0.0103 -0.007,-0.0307 0,-0.0438 0.009,-0.0185 0.0345,-0.0253 0.0438,-0.0438 0.0539,-0.10783 -0.12707,0.0395 0.0438,-0.13134 0.0103,-0.0103 0.0335,0.0103 0.0438,0 0.0206,-0.0206 -0.0206,-0.0669 0,-0.0876 0.0103,-0.0103 0.0335,0.0103 0.0438,0 0.0103,-0.0103 -0.007,-0.0307 0,-0.0438 0.009,-0.0185 0.0345,-0.0253 0.0438,-0.0438 0.007,-0.013 0,-0.0292 0,-0.0438 0,-0.0146 0,-0.0584 0,-0.0438 0,0.0292 0,0.0584 0,0.0876 0,0.0146 0.0103,0.0335 0,0.0438 -0.0103,0.0103 -0.0335,-0.0103 -0.0438,0 -0.0103,0.0103 0.005,0.0299 0,0.0438 -0.0103,0.031 -0.0335,0.0566 -0.0438,0.0876 -0.005,0.0138 0.007,0.0307 0,0.0438 -0.009,0.0185 -0.0346,0.0253 -0.0438,0.0438 -0.007,0.013 0.007,0.0307 0,0.0438 -0.10018,0.20036 0.0182,-0.18578 -0.0875,0.13134 -0.005,0.0138 0.007,0.0307 0,0.0438 -0.009,0.0185 -0.0323,0.0266 -0.0438,0.0438 -0.0181,0.0272 -0.0257,0.0604 -0.0438,0.0876 -0.0115,0.0172 -0.0323,0.0266 -0.0438,0.0438 -0.12747,0.19121 0.0194,-0.0144 -0.0438,0.17512 -0.007,0.0196 -0.0323,0.0266 -0.0438,0.0438 -0.45712,0.76187 0.0766,-0.0875 -0.2189,0.30646 -0.0578,0.077 -0.0735,0.18562 -0.13134,0.26268 -0.0248,0.033 -0.0628,0.0545 -0.0876,0.0875 -0.0196,0.0261 -0.0251,0.0608 -0.0438,0.0876 -0.0837,0.11956 -0.179,0.23069 -0.26268,0.35024 -0.0187,0.0267 -0.0242,0.0615 -0.0438,0.0876 -0.0684,0.0912 -0.15051,0.17149 -0.2189,0.26267 -0.0196,0.0261 -0.0242,0.0615 -0.0438,0.0876 -0.0495,0.066 -0.12559,0.10908 -0.17512,0.17512 -0.0196,0.0261 -0.0242,0.0615 -0.0438,0.0876 -0.0248,0.033 -0.0584,0.0584 -0.0876,0.0876 -0.073,0.073 -0.14986,0.1422 -0.21889,0.2189 -0.75482,0.83868 -0.0779,0.18328 -0.39402,0.39401 -0.0172,0.0115 -0.0292,0.0292 -0.0438,0.0438 -0.0438,0.0438 -0.0876,0.0876 -0.13134,0.13134 -0.0584,0.0584 -0.11674,0.11674 -0.17512,0.17512 -0.0438,0.0438 -0.083,0.0927 -0.13133,0.13134 -0.0255,0.0204 -0.0604,0.0257 -0.0876,0.0438 -0.0172,0.0114 -0.0292,0.0292 -0.0438,0.0438 -0.073,0.073 -0.14055,0.15175 -0.2189,0.2189 -0.0248,0.0213 -0.0604,0.0257 -0.0876,0.0438 -0.0343,0.0229 -0.0532,0.0647 -0.0876,0.0876 -0.0272,0.0181 -0.0604,0.0257 -0.0876,0.0438 -0.0504,0.0336 -0.0828,0.0949 -0.13134,0.13134 -0.0421,0.0316 -0.0893,0.056 -0.13134,0.0876 -0.033,0.0248 -0.0506,0.0691 -0.0876,0.0876 -0.013,0.007 -0.0307,-0.007 -0.0438,0 -0.0185,0.009 -0.0277,0.0309 -0.0438,0.0438 -0.057,0.0456 -0.11814,0.0858 -0.17512,0.13134 -0.0322,0.0258 -0.0532,0.0647 -0.0876,0.0876 -0.0272,0.0181 -0.0566,0.0335 -0.0876,0.0438 -0.0138,0.005 -0.0335,-0.0103 -0.0438,0 -0.0103,0.0103 0.0103,0.0335 0,0.0438 -0.0103,0.0103 -0.0307,-0.007 -0.0438,0 -0.0369,0.0185 -0.0506,0.0691 -0.0876,0.0876 -0.013,0.007 -0.0335,-0.0103 -0.0438,0 -0.0103,0.0103 0.0103,0.0335 0,0.0438 -0.0103,0.0103 -0.0335,0.0103 -0.0438,0 -0.0103,-0.0103 0,-0.0292 0,-0.0438 0,-0.0146 0,-0.0292 0,-0.0438 0,-0.10215 0,-0.2043 0,-0.30645 0,-0.0229 -0.006,-0.16361 0,-0.17512 0.009,-0.0185 0.0345,-0.0253 0.0438,-0.0438 0.013,-0.0261 -0.009,-0.0599 0,-0.0876 0.0103,-0.031 0.0335,-0.0566 0.0438,-0.0876 0.009,-0.0277 -0.009,-0.0599 0,-0.0876 0.0103,-0.031 0.0335,-0.0566 0.0438,-0.0876 0.009,-0.0277 -0.009,-0.0599 0,-0.0876 0.0103,-0.0309 0.0317,-0.0573 0.0438,-0.0876 0.0146,-0.0438 0.0292,-0.0875 0.0438,-0.13133 0,-0.0146 -0.005,-0.0299 0,-0.0438 0.0103,-0.031 0.0359,-0.0559 0.0438,-0.0876 0.007,-0.0283 -0.009,-0.0599 0,-0.0876 0.007,-0.0196 0.0373,-0.0242 0.0438,-0.0438 0.009,-0.0277 -0.007,-0.0593 0,-0.0876 0.008,-0.0317 0.0335,-0.0566 0.0438,-0.0876 0.005,-0.0138 -0.005,-0.0299 0,-0.0438 0.0103,-0.0309 0.0359,-0.0559 0.0438,-0.0876 0.007,-0.0283 -0.009,-0.0599 0,-0.0875 0.007,-0.0196 0.0373,-0.0242 0.0438,-0.0438 0.009,-0.0277 -0.006,-0.0589 0,-0.0875 -0.01,-0.0879 0.0685,-0.14266 0.0876,-0.2189 0.007,-0.0283 -0.007,-0.0592 0,-0.0876 -0.0264,-0.0792 0.0709,-0.0814 0.0876,-0.13134 0.009,-0.0277 -0.007,-0.0592 0,-0.0876 0.008,-0.0317 0.0359,-0.0559 0.0438,-0.0876 0.007,-0.0283 -0.009,-0.0599 0,-0.0876 0.007,-0.0196 0.0292,-0.0292 0.0438,-0.0438 0.0146,-0.0292 0.0359,-0.0559 0.0438,-0.0876 0.007,-0.0283 -0.008,-0.0595 0,-0.0876 0.0292,-0.073 0.0584,-0.14593 0.0876,-0.2189 0.0146,-0.0146 0.0346,-0.0253 0.0438,-0.0438 0.16638,-0.33277 0.006,-0.0259 0.0438,-0.17512 0.0258,-0.10307 0.054,-0.20567 0.0876,-0.30645 0.1057,-0.31712 -0.0126,0.069 0.0875,-0.13134 0.007,-0.0131 -0.005,-0.0299 0,-0.0438 0.0249,-0.0746 0.066,-0.14334 0.0876,-0.2189 0.008,-0.0281 -0.009,-0.0599 0,-0.0876 0.007,-0.0196 0.0345,-0.0253 0.0438,-0.0438 0.0206,-0.0413 0.0326,-0.0866 0.0438,-0.13134 0.004,-0.0142 -0.007,-0.0307 0,-0.0438 0.009,-0.0185 0.0345,-0.0253 0.0438,-0.0438 0.01,-0.0195 -0.007,-0.15509 0,-0.17511 0.007,-0.0196 0.0345,-0.0253 0.0438,-0.0438 0.007,-0.013 0,-0.0292 0,-0.0438 0.0146,-0.0146 0.0346,-0.0253 0.0438,-0.0438 0.013,-0.0261 -0.013,-0.0615 0,-0.0876 0.009,-0.0185 0.0346,-0.0253 0.0438,-0.0438 0.009,-0.0174 -0.009,-0.12239 0,-0.13134 0.0103,-0.0103 0.0335,0.0103 0.0438,0 0.002,-0.002 0,-0.15904 0,-0.17512 0,-0.0146 -0.0146,-0.0438 0,-0.0438 0.0146,0 0.007,0.0307 0,0.0438 -0.009,0.0185 -0.0346,0.0253 -0.0438,0.0438 0,0.11675 0.0146,-0.0146 -0.0438,0.0438 -0.0103,0.0103 0.005,0.0299 0,0.0438 -0.0103,0.031 -0.0257,0.0604 -0.0438,0.0876 -0.0229,0.0343 -0.0628,0.0545 -0.0876,0.0876 -0.12738,0.16984 -0.0477,0.0928 -0.17512,0.26268 -0.0248,0.033 -0.0691,0.0506 -0.0875,0.0876 -0.007,0.013 0.007,0.0307 0,0.0438 -0.0117,0.0234 -0.10829,0.10828 -0.13134,0.13133 -0.0258,0.0257 -0.16498,0.15485 -0.17512,0.17512 -0.007,0.013 0.007,0.0307 0,0.0438 -0.009,0.0185 -0.0292,0.0292 -0.0438,0.0438 -0.0292,0.0292 -0.0647,0.0532 -0.0876,0.0876 -0.008,0.0121 0.007,0.0307 0,0.0438 -0.0101,0.0203 -0.14937,0.14937 -0.17512,0.17512 -0.13134,0.13134 -0.26267,0.26267 -0.39401,0.39401 -0.073,0.073 -0.14593,0.14593 -0.2189,0.2189 -0.0146,0.0146 -0.0292,0.0292 -0.0438,0.0438 -0.0146,0.0146 -0.0253,0.0345 -0.0438,0.0438 -0.013,0.007 -0.0307,-0.007 -0.0438,0 -0.0431,0.0215 -0.13204,0.15358 -0.17512,0.17512 -0.013,0.007 -0.0307,-0.007 -0.0438,0 -0.0185,0.009 -0.0253,0.0345 -0.0438,0.0438 -0.0131,0.007 -0.0316,-0.008 -0.0438,0 -0.0343,0.0229 -0.0584,0.0584 -0.0876,0.0876 -0.0292,0.0292 -0.0584,0.0584 -0.0876,0.0876 -0.0146,0.0146 -0.0253,0.0345 -0.0438,0.0438 -0.0131,0.007 -0.0335,-0.0103 -0.0438,0 -0.0103,0.0103 0.0103,0.0335 0,0.0438 -0.0206,0.0206 -0.0615,-0.013 -0.0876,0 -0.0369,0.0185 -0.0484,0.0745 -0.0876,0.0876 -0.0277,0.009 -0.0614,-0.013 -0.0876,0 -0.013,0.007 0.0103,0.0335 0,0.0438 -0.0206,0.0206 -0.0614,-0.013 -0.0876,0 -0.0185,0.009 -0.0253,0.0345 -0.0438,0.0438 -0.009,0.005 -0.12516,0.006 -0.13134,0 -0.0103,-0.0103 0,-0.0292 0,-0.0438 0,-0.0146 0,-0.0292 0,-0.0438 0,-0.0395 -0.009,-0.19134 0,-0.2189 0.0103,-0.031 0.0359,-0.0559 0.0438,-0.0876 0.007,-0.0283 -0.009,-0.0599 0,-0.0876 0.007,-0.0196 0.0346,-0.0253 0.0438,-0.0438 0.013,-0.0261 -0.013,-0.0615 0,-0.0876 0.009,-0.0185 0.0345,-0.0253 0.0438,-0.0438 0.013,-0.0261 -0.013,-0.0615 0,-0.0876 0.009,-0.0185 0.0345,-0.0253 0.0438,-0.0438 0.013,-0.0261 -0.013,-0.0615 0,-0.0876 0.009,-0.0185 0.0345,-0.0253 0.0438,-0.0438 0.007,-0.013 0,-0.0292 0,-0.0438 0.0146,-0.0146 0.0345,-0.0253 0.0438,-0.0438 0.007,-0.013 -0.007,-0.0307 0,-0.0438 0.009,-0.0185 0.0345,-0.0253 0.0438,-0.0438 0.0131,-0.0261 -0.013,-0.0614 0,-0.0876 0.009,-0.0185 0.0345,-0.0253 0.0438,-0.0438 0.007,-0.013 -0.007,-0.0307 0,-0.0438 0.009,-0.0185 0.0346,-0.0253 0.0438,-0.0438 0.0206,-0.0413 0.0232,-0.0901 0.0438,-0.13133 0.0541,-0.1082 0.0438,0.0151 0.0438,-0.0876 0,-0.11156 0.0511,-0.0584 0.0876,-0.13134 0.007,-0.013 -0.007,-0.0307 0,-0.0438 0.0185,-0.0369 0.0691,-0.0506 0.0876,-0.0876 0.007,-0.013 -0.007,-0.0307 0,-0.0438 0.009,-0.0185 0.0346,-0.0253 0.0438,-0.0438 0.007,-0.013 -0.007,-0.0307 0,-0.0438 0.0365,-0.073 0.0876,-0.0198 0.0876,-0.13133 0,-0.0146 -0.0103,-0.0335 0,-0.0438 0.0103,-0.0103 0.0438,-0.0146 0.0438,0 0,0.0911 -0.0614,0.0176 -0.0876,0.0438 -0.0103,0.0103 0,0.0292 0,0.0438 -0.0146,0 -0.0307,-0.007 -0.0438,0 -0.0502,0.0251 -0.0609,0.0914 -0.0876,0.13134 -0.0115,0.0172 -0.0292,0.0292 -0.0438,0.0438 -0.0146,0.0146 -0.0253,0.0345 -0.0438,0.0438 -0.0131,0.007 -0.0335,-0.0103 -0.0438,0 -0.0103,0.0103 0.007,0.0307 0,0.0438 -0.0335,0.067 -0.078,0.0342 -0.13134,0.0876 -0.0103,0.0103 0.0103,0.0335 0,0.0438 -0.0231,0.0231 -0.0645,0.0207 -0.0876,0.0438 -0.0231,0.0231 -0.0207,0.0645 -0.0438,0.0876 -0.0103,0.0103 -0.0335,-0.0103 -0.0438,0 -0.0231,0.0231 -0.0257,0.0604 -0.0438,0.0876 -0.0229,0.0343 -0.0584,0.0584 -0.0876,0.0875 -0.0438,0.0438 -0.0876,0.0876 -0.13133,0.13134 -0.0146,0.0146 -0.0323,0.0266 -0.0438,0.0438 -0.0181,0.0272 -0.0207,0.0645 -0.0438,0.0876 -0.0231,0.0231 -0.0604,0.0257 -0.0876,0.0438 -0.10058,0.0671 0.0188,0.025 -0.0876,0.13134 -0.0806,0.0806 -0.17614,0.14472 -0.26268,0.2189 -0.0313,0.0269 -0.0532,0.0647 -0.0876,0.0876 -0.0272,0.0181 -0.0604,0.0257 -0.0876,0.0438 -0.0172,0.0114 -0.0292,0.0292 -0.0438,0.0438 -0.0146,0.0146 -0.0323,0.0266 -0.0438,0.0438 -0.0181,0.0272 -0.0257,0.0604 -0.0438,0.0876 -0.0587,0.088 -0.0313,0.0104 -0.13134,0.0438 -0.0503,0.0168 -0.0607,0.10452 -0.0876,0.13134 -0.0103,0.0103 -0.0307,-0.007 -0.0438,0 -0.0369,0.0185 -0.0545,0.0628 -0.0876,0.0876 -0.0421,0.0316 -0.0941,0.0504 -0.13134,0.0876 -0.0103,0.0103 0.008,0.0316 0,0.0438 -0.0229,0.0343 -0.0584,0.0584 -0.0876,0.0876 -0.0146,0.0146 -0.0253,0.0345 -0.0438,0.0438 -0.12883,0.0644 0.0576,-0.10142 -0.0876,0.0438 -0.019,0.019 -0.097,0.12192 -0.13133,0.0876 -0.0103,-0.0103 0,-0.0292 0,-0.0438 0,-0.0146 0,-0.0292 0,-0.0438 0,-0.0146 0,-0.0292 0,-0.0438 0,-0.0146 -0.007,-0.0307 0,-0.0438 0.009,-0.0185 0.0346,-0.0253 0.0438,-0.0438 0.007,-0.013 -0.007,-0.0307 0,-0.0438 0.009,-0.0185 0.0346,-0.0253 0.0438,-0.0438 0.013,-0.0261 -0.013,-0.0615 0,-0.0876 0.009,-0.0185 0.0345,-0.0253 0.0438,-0.0438 0.007,-0.013 -0.007,-0.0307 0,-0.0438 0.009,-0.0185 0.0345,-0.0253 0.0438,-0.0438 0.007,-0.013 -0.007,-0.0307 0,-0.0438 0.10018,-0.20036 -0.0181,0.18578 0.0876,-0.13133 0.005,-0.0138 -0.007,-0.0307 0,-0.0438 0.009,-0.0185 0.0346,-0.0253 0.0438,-0.0438 0.007,-0.013 -0.007,-0.0307 0,-0.0438 0.10018,-0.20036 -0.0182,0.18577 0.0876,-0.13134 0.005,-0.0138 -0.007,-0.0307 0,-0.0438 0.009,-0.0185 0.0345,-0.0253 0.0438,-0.0438 0.0206,-0.0413 0.0232,-0.0901 0.0438,-0.13134 0.009,-0.0185 0.0323,-0.0266 0.0438,-0.0438 0.0181,-0.0272 0.0257,-0.0604 0.0438,-0.0876 0.0115,-0.0172 0.0346,-0.0253 0.0438,-0.0438 0.007,-0.013 0,-0.0292 0,-0.0438 0.0146,-0.0292 0.0257,-0.0604 0.0438,-0.0876 0.0114,-0.0172 0.0323,-0.0266 0.0438,-0.0438 0.0181,-0.0272 0.0257,-0.0604 0.0438,-0.0876 0.0114,-0.0172 0.0323,-0.0266 0.0438,-0.0438 0.0181,-0.0272 0.0257,-0.0604 0.0438,-0.0876 0.0114,-0.0172 0.0323,-0.0266 0.0438,-0.0438 0.0181,-0.0272 0.0276,-0.0592 0.0438,-0.0876 0.0422,-0.0739 0.0862,-0.14674 0.13134,-0.2189 -0.004,-0.0968 0.0909,-0.1144 0.13134,-0.17512 0.0181,-0.0272 0.0257,-0.0604 0.0438,-0.0875 0.0115,-0.0172 0.0345,-0.0253 0.0438,-0.0438 0.007,-0.0131 0,-0.0292 0,-0.0438 0.0146,-0.0292 0.0257,-0.0604 0.0438,-0.0876 0.0229,-0.0343 0.0647,-0.0532 0.0876,-0.0876 0.0181,-0.0272 0.0257,-0.0604 0.0438,-0.0876 0.0115,-0.0172 0.0345,-0.0253 0.0438,-0.0438 0.007,-0.013 -0.007,-0.0307 0,-0.0438 0.0194,-0.0388 0.10477,-0.0915 0.13134,-0.13134 0.10754,-0.0156 0.0182,-0.0929 0.0438,-0.13134 0.0229,-0.0343 0.0647,-0.0532 0.0875,-0.0876 0.008,-0.0121 -0.007,-0.0307 0,-0.0438 0.009,-0.0185 0.0346,-0.0253 0.0438,-0.0438 0.007,-0.013 -0.0103,-0.0334 0,-0.0438 0.0103,-0.0103 0.035,0.0117 0.0438,0 0.0392,-0.0522 0.0633,-0.11453 0.0876,-0.17512 0.005,-0.0136 -0.0103,-0.0335 0,-0.0438 0.0103,-0.0103 0.0335,0.0103 0.0438,0 0.0206,-0.0206 -0.0206,-0.0669 0,-0.0876 0.0103,-0.0103 0.0335,0.0103 0.0438,0 0.0206,-0.0206 -0.0206,-0.0669 0,-0.0876 0.0103,-0.0103 0.0335,0.0103 0.0438,0 0.0206,-0.0206 -0.013,-0.0615 0,-0.0876 0.009,-0.0185 0.0345,-0.0253 0.0438,-0.0438 0.007,-0.013 -0.0146,-0.0438 0,-0.0438 0.0146,0 0.0103,0.0335 0,0.0438 -0.0103,0.0103 -0.0335,-0.0103 -0.0438,0 -0.0103,0.0103 0.007,0.0307 0,0.0438 -0.0185,0.0369 -0.0691,0.0506 -0.0876,0.0876 -0.007,0.013 0,0.0292 0,0.0438 -0.0146,0.0146 -0.0314,0.0273 -0.0438,0.0438 -0.0316,0.0421 -0.056,0.0892 -0.0876,0.13134 -0.0124,0.0165 -0.0323,0.0266 -0.0438,0.0438 -0.0181,0.0272 -0.0257,0.0604 -0.0438,0.0876 -0.0429,0.0644 -0.13217,0.11069 -0.17511,0.17511 -0.0181,0.0272 -0.0257,0.0604 -0.0438,0.0876 -0.0229,0.0343 -0.0647,0.0532 -0.0876,0.0876 -0.0181,0.0272 -0.0257,0.0604 -0.0438,0.0876 -0.0229,0.0343 -0.0647,0.0532 -0.0876,0.0876 -0.0181,0.0272 -0.0257,0.0604 -0.0438,0.0876 -0.0372,0.0557 -0.13466,0.12117 -0.17512,0.17512 -0.0196,0.0261 -0.0257,0.0604 -0.0438,0.0876 -0.0114,0.0172 -0.0306,0.0279 -0.0438,0.0438 -0.0598,0.0718 -0.1208,0.14286 -0.17511,0.21889 -0.019,0.0266 -0.0229,0.0625 -0.0438,0.0876 -0.0529,0.0634 -0.12227,0.1117 -0.17512,0.17512 -0.0209,0.0251 -0.0207,0.0645 -0.0438,0.0876 -0.0231,0.0231 -0.0645,0.0207 -0.0876,0.0438 -0.0231,0.0231 -0.0257,0.0604 -0.0438,0.0876 -0.0115,0.0172 -0.0292,0.0292 -0.0438,0.0438 -0.0438,0.0438 -0.0876,0.0876 -0.13134,0.13134 -0.0292,0.0292 -0.0647,0.0532 -0.0876,0.0875 -0.0181,0.0272 -0.0207,0.0645 -0.0438,0.0876 -0.0516,0.0516 -0.12352,0.0798 -0.17511,0.13134 -0.0103,0.0103 0.0103,0.0335 0,0.0438 -0.0231,0.0231 -0.0566,0.0335 -0.0876,0.0438 -0.0138,0.005 -0.0335,-0.0103 -0.0438,0 -0.0516,0.0516 -0.0661,0.14249 -0.13134,0.17512 -0.013,0.007 -0.0307,-0.007 -0.0438,0 -0.0185,0.009 -0.0345,0.0253 -0.0438,0.0438 -0.007,0.013 0.0103,0.0335 0,0.0438 -0.0103,0.0103 -0.0335,0.0103 -0.0438,0 -0.004,-0.004 -0.004,-0.12696 0,-0.13134 0.0103,-0.0103 0.0335,0.0103 0.0438,0 0.005,-0.005 -0.004,-0.20798 0,-0.2189 0.007,-0.0196 0.0346,-0.0253 0.0438,-0.0438 0.01,-0.0195 -0.007,-0.15509 0,-0.17512 0.007,-0.0196 0.0346,-0.0253 0.0438,-0.0438 0.013,-0.0261 -0.013,-0.0615 0,-0.0875 0.009,-0.0185 0.0345,-0.0253 0.0438,-0.0438 0.013,-0.0261 -0.0131,-0.0615 0,-0.0875 0.009,-0.0185 0.0345,-0.0253 0.0438,-0.0438 0.0138,-0.0275 -0.0138,-0.1476 0,-0.17512 0.009,-0.0185 0.0373,-0.0242 0.0438,-0.0438 0.009,-0.0277 -0.009,-0.0599 0,-0.0876 0.007,-0.0196 0.0345,-0.0253 0.0438,-0.0438 0.007,-0.013 -0.005,-0.0299 0,-0.0438 0.0103,-0.031 0.0335,-0.0566 0.0438,-0.0876 0.005,-0.0138 0,-0.0292 0,-0.0438 0,-0.0746 -0.005,-0.0783 0.0438,-0.17512 0.009,-0.0185 0.0373,-0.0242 0.0438,-0.0438 0.009,-0.0277 -0.009,-0.0599 0,-0.0876 0.007,-0.0196 0.0323,-0.0266 0.0438,-0.0438 0.0181,-0.0272 0.0335,-0.0566 0.0438,-0.0876 0.005,-0.0138 0,-0.0292 0,-0.0438 0.0146,-0.0292 0.0335,-0.0566 0.0438,-0.0876 0.005,-0.0138 -0.005,-0.0299 0,-0.0438 0.0206,-0.0619 0.0669,-0.1132 0.0876,-0.17512 0.005,-0.0138 -0.005,-0.0299 0,-0.0438 0.0103,-0.031 0.0335,-0.0566 0.0438,-0.0876 0.005,-0.0138 -0.007,-0.0307 0,-0.0438 0.009,-0.0185 0.0346,-0.0253 0.0438,-0.0438 0.009,-0.0186 0.0899,-0.24438 0.13134,-0.30646 0.0115,-0.0172 0.0323,-0.0266 0.0438,-0.0438 0.14744,-0.22117 2.6e-4,-10e-4 0.0438,-0.13134 0.0103,-0.031 0.0276,-0.0592 0.0438,-0.0876 0.0422,-0.0739 0.0978,-0.14068 0.13134,-0.2189 0.0115,-0.0268 -0.009,-0.0599 0,-0.0875 0.007,-0.0196 0.0345,-0.0253 0.0438,-0.0438 0.007,-0.0131 -0.005,-0.0299 0,-0.0438 0.1057,-0.31712 -0.0126,0.069 0.0876,-0.13134 0.0206,-0.0413 0.0232,-0.0901 0.0438,-0.13134 0.009,-0.0185 0.0373,-0.0242 0.0438,-0.0438 0.009,-0.0277 -0.009,-0.0599 0,-0.0876 0.007,-0.0196 0.0345,-0.0253 0.0438,-0.0438 0.007,-0.013 -0.007,-0.0307 0,-0.0438 0.009,-0.0185 0.0345,-0.0253 0.0438,-0.0438 0.007,-0.013 -0.007,-0.0307 0,-0.0438 0.009,-0.0185 0.0345,-0.0253 0.0438,-0.0438 0.007,-0.013 -0.007,-0.0307 0,-0.0438 0.009,-0.0185 0.0345,-0.0253 0.0438,-0.0438 0.0131,-0.0261 -0.009,-0.0599 0,-0.0876 0.0103,-0.031 0.0335,-0.0566 0.0438,-0.0876 0.005,-0.0138 -0.007,-0.0307 0,-0.0438 0.009,-0.0185 0.0346,-0.0253 0.0438,-0.0438 0.013,-0.0261 -0.0206,-0.0669 0,-0.0876 0.0103,-0.0103 0.0335,0.0103 0.0438,0 0.009,-0.009 -0.009,-0.11398 0,-0.13134 0.009,-0.0185 0.0438,-0.0232 0.0438,-0.0438 0,-0.0146 -0.0292,0 -0.0438,0 -0.0146,0 -0.0292,0 -0.0438,0 -0.0146,0 -0.0307,-0.007 -0.0438,0 -0.0369,0.0185 -0.0506,0.0691 -0.0876,0.0876 -0.013,0.007 -0.0316,-0.008 -0.0438,0 -0.0343,0.0229 -0.0532,0.0647 -0.0876,0.0876 -0.0121,0.008 -0.0307,-0.007 -0.0438,0 -0.0203,0.0101 -0.14936,0.14937 -0.17511,0.17512 -0.0292,0.0292 -0.0584,0.0584 -0.0876,0.0876 -0.0146,0.0146 -0.0253,0.0346 -0.0438,0.0438 -0.013,0.007 -0.0307,-0.007 -0.0438,0 -0.0525,0.0263 -0.0788,0.10507 -0.13134,0.13133 -0.013,0.007 -0.0307,-0.007 -0.0438,0 -0.0234,0.0117 -0.10829,0.10829 -0.13134,0.13134 -0.14519,0.1452 0.0413,-0.0206 -0.0876,0.0438 -0.0203,0.0101 -0.14937,0.14937 -0.17511,0.17512 -0.0146,0.0146 -0.0242,0.0373 -0.0438,0.0438 -0.0277,0.009 -0.0599,-0.009 -0.0876,0 -0.0196,0.007 -0.0277,0.0309 -0.0438,0.0438 -0.057,0.0456 -0.11814,0.0858 -0.17512,0.13134 -0.0161,0.0129 -0.0242,0.0373 -0.0438,0.0438 -0.0277,0.009 -0.0599,-0.009 -0.0876,0 -0.0196,0.007 -0.0266,0.0323 -0.0438,0.0438 -0.0708,0.0472 -0.148089,0.0841 -0.218899,0.13133 -0.0172,0.0115 -0.0253,0.0345 -0.0438,0.0438 -0.0131,0.007 -0.0307,-0.007 -0.0438,0 -0.20036,0.10017 0.18578,-0.0182 -0.13133,0.0875 -0.0138,0.005 -0.0307,-0.007 -0.0438,0 -0.0369,0.0185 -0.0522,0.0663 -0.0876,0.0876 -0.056,0.0336 -0.11452,0.0633 -0.17512,0.0876 -0.0899,0.0359 -7.9e-4,-0.0869 -0.13134,0.0438 -0.0103,0.0103 0.0103,0.0335 0,0.0438 -0.0103,0.0103 -0.0307,-0.007 -0.0438,0 -0.0185,0.009 -0.0253,0.0345 -0.0438,0.0438 -0.013,0.007 -0.0307,-0.007 -0.0438,0 -0.0185,0.009 -0.0253,0.0345 -0.0438,0.0438 -0.0261,0.013 -0.0615,-0.013 -0.0876,0 -0.0185,0.009 -0.0253,0.0345 -0.0438,0.0438 -0.0131,0.007 -0.0335,-0.0103 -0.0438,0 -0.0103,0.0103 0.0103,0.0335 0,0.0438 -0.0103,0.0103 -0.0307,-0.007 -0.0438,0 -0.0185,0.009 -0.0253,0.0345 -0.0438,0.0438 -0.013,0.007 -0.0335,-0.0103 -0.0438,0 -0.0103,0.0103 0.0103,0.0335 0,0.0438 -0.0206,0.0206 -0.0669,-0.0206 -0.0876,0 -0.0103,0.0103 0.0103,0.0335 0,0.0438 -0.0677,0.0677 -0.0438,-0.11693 -0.0438,-0.13134 0,-0.10267 -0.0103,0.0206 0.0438,-0.0876 0.007,-0.013 -0.005,-0.0299 0,-0.0438 0.0103,-0.031 0.0359,-0.0559 0.0438,-0.0876 0.007,-0.0283 0,-0.0584 0,-0.0876 0,-0.0146 -0.007,-0.0307 0,-0.0438 0.10018,-0.20036 -0.0181,0.18578 0.0876,-0.13134 0.009,-0.0277 -0.013,-0.0615 0,-0.0876 0.009,-0.0185 0.0346,-0.0253 0.0438,-0.0438 0.013,-0.0261 -0.0131,-0.0615 0,-0.0876 0.009,-0.0185 0.0345,-0.0253 0.0438,-0.0438 0.013,-0.0261 -0.0131,-0.0615 0,-0.0876 0.009,-0.0185 0.0345,-0.0253 0.0438,-0.0438 0.0206,-0.0413 0.0326,-0.0866 0.0438,-0.13134 0.004,-0.0142 -0.007,-0.0307 0,-0.0438 0.009,-0.0185 0.0346,-0.0253 0.0438,-0.0438 0.013,-0.0261 -0.013,-0.0615 0,-0.0876 0.009,-0.0185 0.0345,-0.0253 0.0438,-0.0438 0.007,-0.013 -0.005,-0.0299 0,-0.0438 0.0146,-0.0292 0.0292,-0.0584 0.0438,-0.0876 0,-0.0146 -0.005,-0.0299 0,-0.0438 0.0103,-0.031 0.0359,-0.0559 0.0438,-0.0876 0.007,-0.0283 -0.009,-0.0599 0,-0.0876 0.007,-0.0196 0.0345,-0.0253 0.0438,-0.0438 0.013,-0.0261 -0.009,-0.0599 0,-0.0876 0.0103,-0.031 0.0335,-0.0566 0.0438,-0.0876 0.0123,-0.0369 -0.013,-0.19283 0,-0.2189 0.009,-0.0185 0.0345,-0.0253 0.0438,-0.0438 0.006,-0.0115 0,-0.15222 0,-0.17512 0,-0.0146 0.0103,-0.0335 0,-0.0438 -0.002,-0.002 -0.15904,0 -0.17512,0 -0.39401,0 -0.78803,0 -1.18204,0 -0.073,0 -0.14593,0 -0.2189,0 -0.0146,0 -0.0335,0.0103 -0.0438,0 -0.0354,-0.0354 0.10652,-0.1503 0.13134,-0.17512"
       id="path2231"
       inkscape:connector-curvature="0" />
    <text
       xml:space="preserve"
       style="font-style:normal;font-weight:normal;font-size:7.05555534px;line-height:1.25;font-family:sans-serif;letter-spacing:0px;word-spacing:0px;fill:#000000;fill-opacity:1;stroke:none;stroke-width:0.26458332"
       x="36.424526"
       y="173.71695"
       id="text2235"><tspan
         sodipodi:role="line"
         id="tspan2233"
         x="36.424526"
         y="173.71695"
         style="stroke-width:0.26458332">Add a geo location </tspan></text>
    <rect
       style="fill:#000000;fill-opacity:0;stroke:#030000;stroke-width:1.51201224;stroke-miterlimit:4;stroke-dasharray:none;stroke-opacity:1"
       id="rect2237"
       width="80.979965"
       height="17.237045"
       x="30.082539"
       y="162.8219" />
    <rect
       style="fill:#000000;fill-opacity:0;stroke:#030000;stroke-width:1.58749998;stroke-miterlimit:4;stroke-dasharray:none;stroke-opacity:1"
       id="rect2241"
       width="0.7004717"
       height="184.92453"
       x="136.94221"
       y="104.37025" />
    <text
       xml:space="preserve"
       style="font-style:normal;font-weight:normal;font-size:7.05555534px;line-height:1.25;font-family:sans-serif;letter-spacing:0px;word-spacing:0px;fill:#000000;fill-opacity:1;stroke:none;stroke-width:0.26458332"
       x="7.7051873"
       y="200.68512"
       id="text2245"><tspan
         sodipodi:role="line"
         id="tspan2243"
         x="7.7051873"
         y="200.68512"
         style="stroke-width:0.26458332">User Comment:</tspan></text>
    <rect
       style="fill:#000000;fill-opacity:0;stroke:#030000;stroke-width:1.58749998;stroke-miterlimit:4;stroke-dasharray:none;stroke-opacity:1"
       id="rect2247"
       width="108.57311"
       height="33.622639"
       x="14.359669"
       y="203.83723" />
    <text
       xml:space="preserve"
       style="font-style:normal;font-weight:normal;font-size:7.05555534px;line-height:1.25;font-family:sans-serif;letter-spacing:0px;word-spacing:0px;fill:#000000;fill-opacity:1;stroke:none;stroke-width:0.26458332"
       x="6.6544809"
       y="250.06837"
       id="text2251"><tspan
         sodipodi:role="line"
         id="tspan2249"
         x="6.6544809"
         y="250.06837"
         style="stroke-width:0.26458332">Doctor Comment:</tspan></text>
    <rect
       style="fill:#000000;fill-opacity:0;stroke:#030000;stroke-width:1.58749998;stroke-miterlimit:4;stroke-dasharray:none;stroke-opacity:1"
       id="rect2253"
       width="108.57311"
       height="33.272404"
       x="14.359669"
       y="254.97166" />
  </g>
</svg>
